<svg xmlns="http://www.w3.org/2000/svg" xmlns:xlink="http://www.w3.org/1999/xlink" width="500" zoomAndPan="magnify" viewBox="0 0 375 374.999991" height="500" preserveAspectRatio="xMidYMid meet" version="1.0"><defs><clipPath id="d8a2461dac"><path d="M 67.074219 84.4375 L 307.925781 84.4375 L 307.925781 349.179688 L 67.074219 349.179688 Z M 67.074219 84.4375 " clip-rule="nonzero"/></clipPath><clipPath id="c954fe1562"><path d="M 206.84375 211.050781 C 222.015625 191.882812 224.824219 172.414062 222.058594 151.6875 C 220.628906 140.996094 219.683594 130.300781 220.371094 119.539062 C 221.1875 106.839844 227.773438 98.839844 240.066406 95.875 C 252.75 92.828125 263.660156 96.851562 269.5 108 C 275.382812 119.238281 286.632812 112.382812 294.578125 117.476562 C 290.269531 122.574219 282.710938 123.03125 277.058594 127.796875 C 283.425781 132.105469 290.597656 134.441406 295.921875 139.722656 C 305.011719 148.753906 309.265625 159.417969 307.261719 172.273438 C 306.371094 177.925781 303.980469 182.792969 297.640625 183.523438 C 291.613281 184.210938 289.324219 179.660156 286.976562 175.019531 C 285.058594 171.242188 285.71875 165.816406 279.289062 163.382812 C 292.171875 208.601562 272.90625 244.546875 248.671875 279.03125 C 233.46875 300.660156 219.683594 323.003906 212.46875 349.085938 C 210.496094 337.832031 210.824219 326.625 208.875 315.558594 C 205.570312 296.835938 198.914062 279.761719 187.246094 264.886719 C 173.691406 247.59375 159.105469 231.132812 145.851562 213.242188 C 158.433594 250.6875 183.210938 284.113281 180.621094 326.125 C 179.988281 326.054688 178.929688 326.152344 178.816406 325.867188 C 167.378906 298.539062 146.507812 279.558594 123.777344 262.082031 C 110.40625 251.804688 96.824219 241.699219 85.527344 228.972656 C 72.402344 214.214844 64.800781 197.539062 67.980469 174.375 C 76.953125 190.179688 86.503906 202.578125 103.480469 211.324219 C 91.238281 188.449219 82.664062 167.019531 86.800781 142.542969 C 90.910156 118.234375 104.023438 100.441406 125.695312 84.984375 C 121.445312 118.007812 140.367188 136.429688 161.910156 153.390625 C 174.191406 163.070312 186.859375 172.386719 196.265625 185.199219 C 201.433594 192.226562 205.382812 199.914062 206.828125 211.035156 " clip-rule="nonzero"/></clipPath><clipPath id="86590870b3"><path d="M 0.0742188 0.960938 L 240.925781 0.960938 L 240.925781 265.179688 L 0.0742188 265.179688 Z M 0.0742188 0.960938 " clip-rule="nonzero"/></clipPath><clipPath id="678bebf393"><path d="M 139.84375 127.050781 C 155.015625 107.882812 157.824219 88.414062 155.058594 67.6875 C 153.628906 56.996094 152.683594 46.300781 153.371094 35.539062 C 154.1875 22.839844 160.773438 14.839844 173.066406 11.875 C 185.75 8.828125 196.660156 12.851562 202.5 24 C 208.382812 35.238281 219.632812 28.382812 227.578125 33.476562 C 223.269531 38.574219 215.710938 39.03125 210.058594 43.796875 C 216.425781 48.105469 223.597656 50.441406 228.921875 55.722656 C 238.011719 64.753906 242.265625 75.417969 240.261719 88.273438 C 239.371094 93.925781 236.980469 98.792969 230.640625 99.523438 C 224.613281 100.210938 222.324219 95.660156 219.976562 91.019531 C 218.058594 87.242188 218.71875 81.816406 212.289062 79.382812 C 225.171875 124.601562 205.90625 160.546875 181.671875 195.03125 C 166.46875 216.660156 152.683594 239.003906 145.46875 265.085938 C 143.496094 253.832031 143.824219 242.625 141.875 231.558594 C 138.570312 212.835938 131.914062 195.761719 120.246094 180.886719 C 106.691406 163.59375 92.105469 147.132812 78.851562 129.242188 C 91.433594 166.6875 116.210938 200.113281 113.621094 242.125 C 112.988281 242.054688 111.929688 242.152344 111.816406 241.867188 C 100.378906 214.539062 79.507812 195.558594 56.777344 178.082031 C 43.40625 167.804688 29.824219 157.699219 18.527344 144.972656 C 5.402344 130.214844 -2.199219 113.539062 0.980469 90.375 C 9.953125 106.179688 19.503906 118.578125 36.480469 127.324219 C 24.238281 104.449219 15.664062 83.019531 19.800781 58.542969 C 23.910156 34.234375 37.023438 16.441406 58.695312 0.984375 C 54.445312 34.007812 73.367188 52.429688 94.910156 69.390625 C 107.191406 79.070312 119.859375 88.386719 129.265625 101.199219 C 134.433594 108.226562 138.382812 115.914062 139.828125 127.035156 " clip-rule="nonzero"/></clipPath><clipPath id="411fdd2645"><rect x="0" width="241" y="0" height="266"/></clipPath><clipPath id="b807d1fa27"><path d="M 173.566406 25.71875 L 253 25.71875 L 253 138.183594 L 173.566406 138.183594 Z M 173.566406 25.71875 " clip-rule="nonzero"/></clipPath><clipPath id="c5a45a57e9"><path d="M 249.929688 81.746094 C 216.191406 83.464844 205.199219 97.320312 205.253906 138.117188 C 184.984375 129.214844 172.132812 103.421875 174.078125 74.621094 C 180.019531 75.492188 182.050781 82.777344 189.066406 82.777344 C 187.160156 60.546875 192.542969 40.664062 212.683594 25.90625 C 219.710938 49.28125 234.613281 65.34375 252.792969 78.785156 C 253.335938 81.246094 252.566406 82.40625 249.929688 81.761719 " clip-rule="nonzero"/></clipPath><clipPath id="05dcc148d4"><path d="M 0.566406 0.71875 L 80 0.71875 L 80 113.183594 L 0.566406 113.183594 Z M 0.566406 0.71875 " clip-rule="nonzero"/></clipPath><clipPath id="16cd20c4e8"><path d="M 76.929688 56.746094 C 43.191406 58.464844 32.199219 72.320312 32.253906 113.117188 C 11.984375 104.214844 -0.867188 78.421875 1.078125 49.621094 C 7.019531 50.492188 9.050781 57.777344 16.066406 57.777344 C 14.160156 35.546875 19.542969 15.664062 39.683594 0.90625 C 46.710938 24.28125 61.613281 40.34375 79.792969 53.785156 C 80.335938 56.246094 79.566406 57.40625 76.929688 56.761719 " clip-rule="nonzero"/></clipPath><clipPath id="5a2b0140bd"><rect x="0" width="80" y="0" height="114"/></clipPath></defs><g clip-path="url(#d8a2461dac)"><g clip-path="url(#c954fe1562)"><g transform="matrix(1, 0, 0, 1, 67, 84)"><g clip-path="url(#411fdd2645)"><g clip-path="url(#86590870b3)"><g clip-path="url(#678bebf393)"><rect x="-149.5" width="540" fill="#9f0f1a" height="539.999987" y="-166.499998" fill-opacity="1"/></g></g></g></g></g></g><g clip-path="url(#b807d1fa27)"><g clip-path="url(#c5a45a57e9)"><g transform="matrix(1, 0, 0, 1, 173, 25)"><g clip-path="url(#5a2b0140bd)"><g clip-path="url(#05dcc148d4)"><g clip-path="url(#16cd20c4e8)"><rect x="-255.5" width="540" fill="#9f0f1a" height="539.999987" y="-107.499998" fill-opacity="1"/></g></g></g></g></g></g></svg>