<svg xmlns="http://www.w3.org/2000/svg" xmlns:xlink="http://www.w3.org/1999/xlink" width="1280" zoomAndPan="magnify" viewBox="0 0 960 540.000001" height="720" preserveAspectRatio="xMidYMid meet" version="1.0"><defs><clipPath id="7043556db1"><path d="M 0.886719 26 L 959.113281 26 L 959.113281 513 L 0.886719 513 Z M 0.886719 26 " clip-rule="nonzero"/></clipPath><clipPath id="a5fd1caa4d"><path d="M 0.914062 448.632812 L 26.039062 448.632812 L 26.039062 452.566406 L 0.914062 452.566406 Z M 11.082031 452.566406 L 15.925781 452.566406 L 15.925781 485.746094 L 11.082031 485.746094 Z M 11.082031 452.566406 " clip-rule="nonzero"/></clipPath><clipPath id="6a64abcb8c"><path d="M 0.914062 0.632812 L 26.039062 0.632812 L 26.039062 4.566406 L 0.914062 4.566406 Z M 11.082031 4.566406 L 15.925781 4.566406 L 15.925781 37.746094 L 11.082031 37.746094 Z M 11.082031 4.566406 " clip-rule="nonzero"/></clipPath><clipPath id="ea4a3a12ac"><rect x="0" width="27" y="0" height="38"/></clipPath><clipPath id="246f18ce2e"><path d="M 78.636719 448.632812 L 83.484375 448.632812 L 83.484375 464.917969 L 78.636719 464.917969 Z M 54.898438 448.632812 L 59.746094 448.632812 L 59.746094 464.917969 L 54.898438 464.917969 Z M 54.898438 464.917969 L 83.484375 464.917969 L 83.484375 468.910156 L 54.898438 468.910156 Z M 54.898438 468.910156 L 59.746094 468.910156 L 59.746094 485.746094 L 54.898438 485.746094 Z M 78.636719 468.910156 L 83.484375 468.910156 L 83.484375 485.746094 L 78.636719 485.746094 Z M 78.636719 468.910156 " clip-rule="nonzero"/></clipPath><clipPath id="af8fbbb59d"><path d="M 24.636719 0.632812 L 29.484375 0.632812 L 29.484375 16.917969 L 24.636719 16.917969 Z M 0.898438 0.632812 L 5.746094 0.632812 L 5.746094 16.917969 L 0.898438 16.917969 Z M 0.898438 16.917969 L 29.484375 16.917969 L 29.484375 20.910156 L 0.898438 20.910156 Z M 0.898438 20.910156 L 5.746094 20.910156 L 5.746094 37.746094 L 0.898438 37.746094 Z M 24.636719 20.910156 L 29.484375 20.910156 L 29.484375 37.746094 L 24.636719 37.746094 Z M 24.636719 20.910156 " clip-rule="nonzero"/></clipPath><clipPath id="a96d5ca33d"><rect x="0" width="30" y="0" height="38"/></clipPath><clipPath id="27f8a7556b"><path d="M 114.636719 448.578125 L 134.609375 448.578125 L 134.609375 452.570312 L 114.636719 452.570312 Z M 114.636719 452.570312 L 119.480469 452.570312 L 119.480469 464.976562 L 114.636719 464.976562 Z M 114.636719 464.976562 L 133.011719 464.976562 L 133.011719 468.96875 L 114.636719 468.96875 Z M 114.636719 468.96875 L 119.480469 468.96875 L 119.480469 481.742188 L 114.636719 481.742188 Z M 114.636719 481.742188 L 134.609375 481.742188 L 134.609375 485.734375 L 114.636719 485.734375 Z M 114.636719 481.742188 " clip-rule="nonzero"/></clipPath><clipPath id="0b4ca87d14"><path d="M 0.636719 0.578125 L 20.609375 0.578125 L 20.609375 4.570312 L 0.636719 4.570312 Z M 0.636719 4.570312 L 5.480469 4.570312 L 5.480469 16.976562 L 0.636719 16.976562 Z M 0.636719 16.976562 L 19.011719 16.976562 L 19.011719 20.96875 L 0.636719 20.96875 Z M 0.636719 20.96875 L 5.480469 20.96875 L 5.480469 33.742188 L 0.636719 33.742188 Z M 0.636719 33.742188 L 20.609375 33.742188 L 20.609375 37.734375 L 0.636719 37.734375 Z M 0.636719 33.742188 " clip-rule="nonzero"/></clipPath><clipPath id="45f9251fcb"><rect x="0" width="21" y="0" height="38"/></clipPath><clipPath id="cb0e7ac234"><path d="M 201.949219 448.632812 L 222.929688 448.632812 L 222.929688 452.566406 L 201.949219 452.566406 Z M 201.949219 452.566406 L 206.796875 452.566406 L 206.796875 465.074219 L 201.949219 465.074219 Z M 201.949219 465.074219 L 219.890625 465.074219 L 219.890625 469.007812 L 201.949219 469.007812 Z M 201.949219 469.007812 L 206.796875 469.007812 L 206.796875 485.746094 L 201.949219 485.746094 Z M 201.949219 469.007812 " clip-rule="nonzero"/></clipPath><clipPath id="213aeaee47"><path d="M 0.949219 0.632812 L 21.929688 0.632812 L 21.929688 4.566406 L 0.949219 4.566406 Z M 0.949219 4.566406 L 5.796875 4.566406 L 5.796875 17.074219 L 0.949219 17.074219 Z M 0.949219 17.074219 L 18.890625 17.074219 L 18.890625 21.007812 L 0.949219 21.007812 Z M 0.949219 21.007812 L 5.796875 21.007812 L 5.796875 37.746094 L 0.949219 37.746094 Z M 0.949219 21.007812 " clip-rule="nonzero"/></clipPath><clipPath id="222aff7ec9"><rect x="0" width="22" y="0" height="38"/></clipPath><clipPath id="6a5923d8c5"><path d="M 251.679688 448.578125 L 271.652344 448.578125 L 271.652344 452.570312 L 251.679688 452.570312 Z M 251.679688 452.570312 L 256.523438 452.570312 L 256.523438 464.976562 L 251.679688 464.976562 Z M 251.679688 464.976562 L 270.039062 464.976562 L 270.039062 468.96875 L 251.679688 468.96875 Z M 251.679688 468.96875 L 256.523438 468.96875 L 256.523438 481.742188 L 251.679688 481.742188 Z M 251.679688 481.742188 L 271.652344 481.742188 L 271.652344 485.734375 L 251.679688 485.734375 Z M 251.679688 481.742188 " clip-rule="nonzero"/></clipPath><clipPath id="efef085405"><path d="M 0.679688 0.578125 L 20.652344 0.578125 L 20.652344 4.570312 L 0.679688 4.570312 Z M 0.679688 4.570312 L 5.523438 4.570312 L 5.523438 16.976562 L 0.679688 16.976562 Z M 0.679688 16.976562 L 19.039062 16.976562 L 19.039062 20.96875 L 0.679688 20.96875 Z M 0.679688 20.96875 L 5.523438 20.96875 L 5.523438 33.742188 L 0.679688 33.742188 Z M 0.679688 33.742188 L 20.652344 33.742188 L 20.652344 37.734375 L 0.679688 37.734375 Z M 0.679688 33.742188 " clip-rule="nonzero"/></clipPath><clipPath id="728f79d3d7"><rect x="0" width="21" y="0" height="38"/></clipPath><clipPath id="82a583de63"><path d="M 299.542969 448.84375 L 331.910156 448.84375 L 331.910156 485.765625 L 299.542969 485.765625 Z M 299.542969 448.84375 " clip-rule="nonzero"/></clipPath><clipPath id="b03a985d8c"><path d="M 322.441406 473.550781 L 315.730469 454.808594 L 309.023438 473.550781 Z M 323.828125 477.484375 L 307.636719 477.484375 L 304.652344 485.746094 L 299.542969 485.746094 L 312.957031 448.84375 L 318.546875 448.84375 L 331.90625 485.746094 L 326.796875 485.746094 Z M 323.828125 477.484375 " clip-rule="nonzero"/></clipPath><clipPath id="576d56c68e"><path d="M 0.542969 0.84375 L 32.910156 0.84375 L 32.910156 37.765625 L 0.542969 37.765625 Z M 0.542969 0.84375 " clip-rule="nonzero"/></clipPath><clipPath id="e390129c1a"><path d="M 23.441406 25.550781 L 16.730469 6.808594 L 10.023438 25.550781 Z M 24.828125 29.484375 L 8.636719 29.484375 L 5.652344 37.746094 L 0.542969 37.746094 L 13.957031 0.84375 L 19.546875 0.84375 L 32.90625 37.746094 L 27.796875 37.746094 Z M 24.828125 29.484375 " clip-rule="nonzero"/></clipPath><clipPath id="5efd0e772b"><rect x="0" width="33" y="0" height="38"/></clipPath><clipPath id="84b7afb8aa"><path d="M 7.621094 337 L 110.742188 337 L 110.742188 431.28125 L 7.621094 431.28125 Z M 7.621094 337 " clip-rule="nonzero"/></clipPath><clipPath id="278a800d26"><path d="M 110.675781 431.003906 C 104.289062 431.003906 99.109375 430.011719 95.117188 428.007812 C 91.125 426.003906 88.226562 422.910156 86.40625 418.695312 C 84.585938 414.480469 83.675781 409.058594 83.675781 402.40625 L 83.675781 355.347656 L 54.558594 425.023438 L 50.171875 425.023438 L 14.542969 352.6875 L 14.542969 425.023438 L 7.890625 425.023438 L 7.890625 337.265625 L 24.109375 337.265625 L 56.292969 402.558594 L 83.546875 337.265625 L 100.972656 337.265625 L 100.972656 402.421875 C 100.972656 410.488281 101.65625 416.539062 103.03125 420.570312 C 104.402344 424.605469 106.953125 426.972656 110.675781 427.6875 Z M 110.675781 431.003906 " clip-rule="nonzero"/></clipPath><clipPath id="bdeefbeb21"><path d="M 0.835938 0.167969 L 103.742188 0.167969 L 103.742188 94.074219 L 0.835938 94.074219 Z M 0.835938 0.167969 " clip-rule="nonzero"/></clipPath><clipPath id="a40a303c99"><path d="M 103.675781 94.003906 C 97.289062 94.003906 92.109375 93.011719 88.117188 91.007812 C 84.125 89.003906 81.226562 85.910156 79.40625 81.695312 C 77.585938 77.480469 76.675781 72.058594 76.675781 65.40625 L 76.675781 18.347656 L 47.558594 88.023438 L 43.171875 88.023438 L 7.542969 15.6875 L 7.542969 88.023438 L 0.890625 88.023438 L 0.890625 0.265625 L 17.109375 0.265625 L 49.292969 65.558594 L 76.546875 0.265625 L 93.972656 0.265625 L 93.972656 65.421875 C 93.972656 73.488281 94.65625 79.539062 96.03125 83.570312 C 97.402344 87.605469 99.953125 89.972656 103.675781 90.6875 Z M 103.675781 94.003906 " clip-rule="nonzero"/></clipPath><clipPath id="466b2d0b4f"><rect x="0" width="104" y="0" height="95"/></clipPath><clipPath id="f9331ff5c6"><path d="M 114.109375 337 L 203.339844 337 L 203.339844 425.808594 L 114.109375 425.808594 Z M 114.109375 337 " clip-rule="nonzero"/></clipPath><clipPath id="4e9a16e304"><path d="M 195.242188 417.589844 C 192.933594 415.277344 190.984375 412.183594 189.390625 408.273438 L 159.613281 337.265625 L 153.632812 337.265625 L 114.402344 425.023438 L 121.320312 425.023438 L 135.019531 394.84375 L 150.4375 360.136719 L 164.949219 394.578125 C 165.1875 394.96875 170.648438 408.273438 170.648438 408.273438 C 172.777344 413.332031 175.328125 417.097656 178.296875 419.578125 C 181.265625 422.054688 184.359375 423.679688 187.609375 424.421875 C 190.859375 425.164062 193.925781 425.558594 196.855469 425.558594 C 197.835938 425.558594 198.953125 425.488281 200.242188 425.363281 C 201.53125 425.234375 202.527344 425.066406 203.242188 424.898438 L 203.242188 421.566406 C 200.230469 421.214844 197.566406 419.886719 195.257812 417.574219 " clip-rule="nonzero"/></clipPath><clipPath id="50f50589af"><path d="M 0.199219 0.167969 L 89.3125 0.167969 L 89.3125 88.5625 L 0.199219 88.5625 Z M 0.199219 0.167969 " clip-rule="nonzero"/></clipPath><clipPath id="f1aedbb70d"><path d="M 81.242188 80.589844 C 78.933594 78.277344 76.984375 75.183594 75.390625 71.273438 L 45.613281 0.265625 L 39.632812 0.265625 L 0.402344 88.023438 L 7.320312 88.023438 L 21.019531 57.84375 L 36.4375 23.136719 L 50.949219 57.578125 C 51.1875 57.96875 56.648438 71.273438 56.648438 71.273438 C 58.777344 76.332031 61.328125 80.097656 64.296875 82.578125 C 67.265625 85.054688 70.359375 86.679688 73.609375 87.421875 C 76.859375 88.164062 79.925781 88.558594 82.855469 88.558594 C 83.835938 88.558594 84.953125 88.488281 86.242188 88.363281 C 87.53125 88.234375 88.527344 88.066406 89.242188 87.898438 L 89.242188 84.566406 C 86.230469 84.214844 83.566406 82.886719 81.257812 80.574219 " clip-rule="nonzero"/></clipPath><clipPath id="54270f8380"><rect x="0" width="90" y="0" height="89"/></clipPath><clipPath id="842856fbe7"><path d="M 199.554688 337 L 281.628906 337 L 281.628906 425.808594 L 199.554688 425.808594 Z M 199.554688 337 " clip-rule="nonzero"/></clipPath><clipPath id="df172f2bc9"><path d="M 275.425781 425.429688 L 219.054688 359.210938 L 219.054688 425.039062 L 212.398438 425.039062 L 212.398438 353.21875 C 212.398438 349.855469 211.574219 347.015625 209.933594 344.703125 C 208.296875 342.390625 205.132812 341.242188 200.425781 341.242188 L 199.765625 341.242188 L 199.765625 337.265625 L 209.082031 337.265625 C 214.136719 337.265625 218.226562 337.925781 221.378906 339.253906 C 224.527344 340.585938 227.121094 342.574219 229.152344 345.234375 L 274.894531 398.429688 L 274.894531 337.265625 L 281.546875 337.265625 L 281.546875 425.429688 Z M 275.425781 425.429688 " clip-rule="nonzero"/></clipPath><clipPath id="ac91a53af4"><path d="M 0.71875 0.167969 L 82.628906 0.167969 L 82.628906 88.5625 L 0.71875 88.5625 Z M 0.71875 0.167969 " clip-rule="nonzero"/></clipPath><clipPath id="9f533dfa18"><path d="M 76.425781 88.429688 L 20.054688 22.210938 L 20.054688 88.039062 L 13.398438 88.039062 L 13.398438 16.21875 C 13.398438 12.855469 12.574219 10.015625 10.933594 7.703125 C 9.296875 5.390625 6.132812 4.242188 1.425781 4.242188 L 0.765625 4.242188 L 0.765625 0.265625 L 10.082031 0.265625 C 15.136719 0.265625 19.226562 0.925781 22.378906 2.253906 C 25.527344 3.585938 28.121094 5.574219 30.152344 8.234375 L 75.894531 61.429688 L 75.894531 0.265625 L 82.546875 0.265625 L 82.546875 88.429688 Z M 76.425781 88.429688 " clip-rule="nonzero"/></clipPath><clipPath id="33b2452fe6"><rect x="0" width="83" y="0" height="89"/></clipPath><clipPath id="595cbec2db"><path d="M 293 337 L 384.75 337 L 384.75 425.386719 L 293 425.386719 Z M 293 337 " clip-rule="nonzero"/></clipPath><clipPath id="50fb3b1394"><path d="M 332.597656 419.703125 C 338.800781 419.703125 344.304688 418.148438 349.082031 415.054688 C 353.855469 411.957031 357.636719 407.519531 360.382812 401.761719 C 363.128906 396.003906 364.5 389.128906 364.5 381.144531 C 364.5 373.34375 363.144531 366.566406 360.441406 360.796875 C 357.738281 355.023438 353.96875 350.558594 349.136719 347.363281 C 344.304688 344.171875 338.703125 342.574219 332.316406 342.574219 C 330.371094 342.574219 328.675781 342.617188 327.261719 342.699219 C 325.84375 342.785156 323.84375 343.050781 321.28125 343.5 L 321.28125 418.777344 C 323.226562 419.128906 324.753906 419.382812 325.875 419.507812 C 326.992188 419.632812 328.015625 419.703125 328.996094 419.703125 Z M 304.011719 425.023438 L 304.011719 354.550781 C 304.011719 350.558594 303.449219 347.351562 302.34375 344.914062 C 301.238281 342.476562 298.6875 341.257812 294.695312 341.257812 L 293.367188 341.257812 L 293.367188 337.265625 L 329.527344 337.265625 C 347.792969 337.265625 361.503906 341.117188 370.675781 348.835938 C 379.851562 356.550781 384.445312 367.140625 384.445312 380.613281 C 384.445312 389.394531 382.46875 397.097656 378.519531 403.75 C 374.570312 410.402344 368.785156 415.613281 361.167969 419.382812 C 353.546875 423.148438 344.152344 425.039062 332.972656 425.039062 Z M 304.011719 425.023438 " clip-rule="nonzero"/></clipPath><clipPath id="1c80a781ca"><path d="M 0.144531 0.167969 L 91.65625 0.167969 L 91.65625 88.085938 L 0.144531 88.085938 Z M 0.144531 0.167969 " clip-rule="nonzero"/></clipPath><clipPath id="90e8533100"><path d="M 39.597656 82.703125 C 45.800781 82.703125 51.304688 81.148438 56.082031 78.054688 C 60.855469 74.957031 64.636719 70.519531 67.382812 64.761719 C 70.128906 59.003906 71.5 52.128906 71.5 44.144531 C 71.5 36.34375 70.144531 29.566406 67.441406 23.796875 C 64.738281 18.023438 60.96875 13.558594 56.136719 10.363281 C 51.304688 7.171875 45.703125 5.574219 39.316406 5.574219 C 37.371094 5.574219 35.675781 5.617188 34.261719 5.699219 C 32.84375 5.785156 30.84375 6.050781 28.28125 6.5 L 28.28125 81.777344 C 30.226562 82.128906 31.753906 82.382812 32.875 82.507812 C 33.992188 82.632812 35.015625 82.703125 35.996094 82.703125 Z M 11.011719 88.023438 L 11.011719 17.550781 C 11.011719 13.558594 10.449219 10.351562 9.34375 7.914062 C 8.238281 5.476562 5.6875 4.257812 1.695312 4.257812 L 0.367188 4.257812 L 0.367188 0.265625 L 36.527344 0.265625 C 54.792969 0.265625 68.503906 4.117188 77.675781 11.835938 C 86.851562 19.550781 91.445312 30.140625 91.445312 43.613281 C 91.445312 52.394531 89.46875 60.097656 85.519531 66.75 C 81.570312 73.402344 75.785156 78.613281 68.167969 82.382812 C 60.546875 86.148438 51.152344 88.039062 39.972656 88.039062 Z M 11.011719 88.023438 " clip-rule="nonzero"/></clipPath><clipPath id="6eaa054527"><rect x="0" width="92" y="0" height="89"/></clipPath><clipPath id="818bccc8af"><path d="M 359.597656 448.152344 L 384.878906 448.152344 L 384.878906 486.125 L 359.597656 486.125 Z M 359.597656 448.152344 " clip-rule="nonzero"/></clipPath><clipPath id="9d506a7527"><path d="M 365.859375 484.804688 C 363.925781 483.9375 362.398438 482.730469 361.308594 481.191406 C 360.214844 479.648438 359.640625 477.855469 359.597656 475.839844 L 364.765625 475.839844 C 364.949219 477.578125 365.664062 479.046875 366.921875 480.222656 C 368.183594 481.402344 370.019531 482.003906 372.425781 482.003906 C 374.738281 482.003906 376.558594 481.429688 377.890625 480.265625 C 379.21875 479.105469 379.890625 477.632812 379.890625 475.828125 C 379.890625 474.398438 379.5 473.25 378.714844 472.367188 C 377.929688 471.484375 376.949219 470.796875 375.789062 470.335938 C 374.625 469.875 373.042969 469.382812 371.054688 468.835938 C 368.605469 468.191406 366.644531 467.5625 365.171875 466.917969 C 363.703125 466.273438 362.441406 465.28125 361.390625 463.90625 C 360.339844 462.535156 359.808594 460.742188 359.808594 458.429688 C 359.808594 456.414062 360.328125 454.621094 361.347656 453.054688 C 362.371094 451.484375 363.828125 450.28125 365.691406 449.425781 C 367.554688 448.570312 369.695312 448.152344 372.105469 448.152344 C 375.578125 448.152344 378.4375 449.019531 380.648438 450.757812 C 382.863281 452.492188 384.121094 454.804688 384.402344 457.675781 L 379.078125 457.675781 C 378.898438 456.261719 378.15625 455 376.839844 453.921875 C 375.523438 452.84375 373.800781 452.296875 371.628906 452.296875 C 369.597656 452.296875 367.960938 452.828125 366.671875 453.867188 C 365.382812 454.902344 364.765625 456.386719 364.765625 458.261719 C 364.765625 459.609375 365.144531 460.714844 365.914062 461.570312 C 366.683594 462.421875 367.625 463.066406 368.742188 463.515625 C 369.863281 463.964844 371.433594 464.46875 373.449219 465.027344 C 375.902344 465.699219 377.875 466.371094 379.359375 467.03125 C 380.84375 467.6875 382.132812 468.699219 383.199219 470.070312 C 384.261719 471.441406 384.792969 473.292969 384.792969 475.628906 C 384.792969 477.4375 384.316406 479.144531 383.351562 480.742188 C 382.386719 482.339844 380.972656 483.640625 379.09375 484.636719 C 377.21875 485.628906 374.992188 486.121094 372.441406 486.121094 C 369.988281 486.121094 367.804688 485.6875 365.871094 484.816406 " clip-rule="nonzero"/></clipPath><clipPath id="df0cb4e8db"><path d="M 0.597656 0.152344 L 25.878906 0.152344 L 25.878906 38.125 L 0.597656 38.125 Z M 0.597656 0.152344 " clip-rule="nonzero"/></clipPath><clipPath id="d2b41c5860"><path d="M 6.859375 36.804688 C 4.925781 35.9375 3.398438 34.730469 2.308594 33.191406 C 1.214844 31.648438 0.640625 29.855469 0.597656 27.839844 L 5.765625 27.839844 C 5.949219 29.578125 6.664062 31.046875 7.921875 32.222656 C 9.183594 33.402344 11.019531 34.003906 13.425781 34.003906 C 15.738281 34.003906 17.558594 33.429688 18.890625 32.265625 C 20.21875 31.105469 20.890625 29.632812 20.890625 27.828125 C 20.890625 26.398438 20.5 25.25 19.714844 24.367188 C 18.929688 23.484375 17.949219 22.796875 16.789062 22.335938 C 15.625 21.875 14.042969 21.382812 12.054688 20.835938 C 9.605469 20.191406 7.644531 19.5625 6.171875 18.917969 C 4.703125 18.273438 3.441406 17.28125 2.390625 15.90625 C 1.339844 14.535156 0.808594 12.742188 0.808594 10.429688 C 0.808594 8.414062 1.328125 6.621094 2.347656 5.054688 C 3.371094 3.484375 4.828125 2.28125 6.691406 1.425781 C 8.554688 0.570312 10.695312 0.152344 13.105469 0.152344 C 16.578125 0.152344 19.4375 1.019531 21.648438 2.757812 C 23.863281 4.492188 25.121094 6.804688 25.402344 9.675781 L 20.078125 9.675781 C 19.898438 8.261719 19.15625 7 17.839844 5.921875 C 16.523438 4.84375 14.800781 4.296875 12.628906 4.296875 C 10.597656 4.296875 8.960938 4.828125 7.671875 5.867188 C 6.382812 6.902344 5.765625 8.386719 5.765625 10.261719 C 5.765625 11.609375 6.144531 12.714844 6.914062 13.570312 C 7.683594 14.421875 8.625 15.066406 9.742188 15.515625 C 10.863281 15.964844 12.433594 16.46875 14.449219 17.027344 C 16.902344 17.699219 18.875 18.371094 20.359375 19.03125 C 21.84375 19.6875 23.132812 20.699219 24.199219 22.070312 C 25.261719 23.441406 25.792969 25.292969 25.792969 27.628906 C 25.792969 29.4375 25.316406 31.144531 24.351562 32.742188 C 23.386719 34.339844 21.972656 35.640625 20.09375 36.636719 C 18.21875 37.628906 15.992188 38.121094 13.441406 38.121094 C 10.988281 38.121094 8.804688 37.6875 6.871094 36.816406 " clip-rule="nonzero"/></clipPath><clipPath id="cbd9b91a1a"><rect x="0" width="26" y="0" height="39"/></clipPath><clipPath id="4d65023040"><path d="M 399.753906 337.265625 L 427.785156 337.265625 L 427.785156 425.070312 L 399.753906 425.070312 Z M 399.753906 337.265625 " clip-rule="nonzero"/></clipPath><clipPath id="2c56dd6816"><path d="M 411.714844 425.027344 C 408.605469 425.027344 406.195312 424.519531 404.472656 423.5 C 402.75 422.476562 401.515625 420.710938 400.816406 418.175781 C 400.117188 415.640625 399.753906 412.167969 399.753906 407.742188 L 399.753906 337.265625 L 417.035156 337.265625 L 417.035156 407.742188 C 417.035156 411.734375 417.582031 414.941406 418.703125 417.378906 C 419.824219 419.816406 422.359375 421.035156 426.347656 421.035156 L 427.679688 421.035156 L 427.679688 425.027344 Z M 411.714844 425.027344 " clip-rule="nonzero"/></clipPath><clipPath id="93be74d8f5"><path d="M 0.753906 0.265625 L 28.777344 0.265625 L 28.777344 88.070312 L 0.753906 88.070312 Z M 0.753906 0.265625 " clip-rule="nonzero"/></clipPath><clipPath id="886bbd81b0"><path d="M 12.714844 88.027344 C 9.605469 88.027344 7.195312 87.519531 5.472656 86.5 C 3.75 85.476562 2.515625 83.710938 1.816406 81.175781 C 1.117188 78.640625 0.753906 75.167969 0.753906 70.742188 L 0.753906 0.265625 L 18.035156 0.265625 L 18.035156 70.742188 C 18.035156 74.734375 18.582031 77.941406 19.703125 80.378906 C 20.824219 82.816406 23.359375 84.035156 27.347656 84.035156 L 28.679688 84.035156 L 28.679688 88.027344 Z M 12.714844 88.027344 " clip-rule="nonzero"/></clipPath><clipPath id="3700f24603"><rect x="0" width="29" y="0" height="89"/></clipPath><clipPath id="f4c32f19d8"><path d="M 412.519531 448.632812 L 437.644531 448.632812 L 437.644531 452.566406 L 412.519531 452.566406 Z M 422.6875 452.566406 L 427.53125 452.566406 L 427.53125 485.746094 L 422.6875 485.746094 Z M 422.6875 452.566406 " clip-rule="nonzero"/></clipPath><clipPath id="4cce7b4e14"><path d="M 0.519531 0.632812 L 25.644531 0.632812 L 25.644531 4.566406 L 0.519531 4.566406 Z M 10.6875 4.566406 L 15.53125 4.566406 L 15.53125 37.746094 L 10.6875 37.746094 Z M 10.6875 4.566406 " clip-rule="nonzero"/></clipPath><clipPath id="6c233b89cc"><rect x="0" width="26" y="0" height="38"/></clipPath><clipPath id="ec27d16aae"><path d="M 501.800781 448.207031 L 539.21875 448.207031 L 539.21875 486.203125 L 501.800781 486.203125 Z M 501.800781 448.207031 " clip-rule="nonzero"/></clipPath><clipPath id="c957478c71"><path d="M 527.433594 480.097656 C 529.503906 478.890625 531.144531 477.167969 532.335938 474.929688 C 533.523438 472.6875 534.113281 470.097656 534.113281 467.15625 C 534.113281 464.171875 533.523438 461.566406 532.335938 459.355469 C 531.144531 457.140625 529.519531 455.417969 527.460938 454.214844 C 525.402344 453.007812 523.0625 452.40625 520.445312 452.40625 C 517.824219 452.40625 515.472656 453.007812 513.414062 454.214844 C 511.355469 455.417969 509.730469 457.140625 508.539062 459.355469 C 507.347656 461.566406 506.761719 464.171875 506.761719 467.15625 C 506.761719 470.097656 507.347656 472.6875 508.539062 474.929688 C 509.730469 477.167969 511.355469 478.890625 513.441406 480.097656 C 515.527344 481.300781 517.851562 481.902344 520.445312 481.902344 C 523.035156 481.902344 525.375 481.300781 527.445312 480.097656 M 511.019531 483.695312 C 508.175781 482.085938 505.933594 479.828125 504.28125 476.929688 C 502.628906 474.03125 501.800781 470.78125 501.800781 467.15625 C 501.800781 463.527344 502.628906 460.277344 504.28125 457.394531 C 505.933594 454.507812 508.175781 452.238281 511.019531 450.628906 C 513.859375 449.019531 516.996094 448.207031 520.445312 448.207031 C 523.917969 448.207031 527.082031 449.019531 529.925781 450.628906 C 532.769531 452.238281 534.996094 454.492188 536.632812 457.363281 C 538.273438 460.234375 539.085938 463.511719 539.085938 467.167969 C 539.085938 470.824219 538.273438 474.085938 536.632812 476.957031 C 534.996094 479.828125 532.769531 482.085938 529.925781 483.695312 C 527.082031 485.304688 523.929688 486.117188 520.445312 486.117188 C 516.996094 486.117188 513.859375 485.304688 511.019531 483.695312 " clip-rule="nonzero"/></clipPath><clipPath id="8ce05e4634"><path d="M 0.800781 0.207031 L 38.171875 0.207031 L 38.171875 38.171875 L 0.800781 38.171875 Z M 0.800781 0.207031 " clip-rule="nonzero"/></clipPath><clipPath id="662250ce26"><path d="M 26.433594 32.097656 C 28.503906 30.890625 30.144531 29.167969 31.335938 26.929688 C 32.523438 24.6875 33.113281 22.097656 33.113281 19.15625 C 33.113281 16.171875 32.523438 13.566406 31.335938 11.355469 C 30.144531 9.140625 28.519531 7.417969 26.460938 6.214844 C 24.402344 5.007812 22.0625 4.40625 19.445312 4.40625 C 16.824219 4.40625 14.472656 5.007812 12.414062 6.214844 C 10.355469 7.417969 8.730469 9.140625 7.539062 11.355469 C 6.347656 13.566406 5.761719 16.171875 5.761719 19.15625 C 5.761719 22.097656 6.347656 24.6875 7.539062 26.929688 C 8.730469 29.167969 10.355469 30.890625 12.441406 32.097656 C 14.527344 33.300781 16.851562 33.902344 19.445312 33.902344 C 22.035156 33.902344 24.375 33.300781 26.445312 32.097656 M 10.019531 35.695312 C 7.175781 34.085938 4.933594 31.828125 3.28125 28.929688 C 1.628906 26.03125 0.800781 22.78125 0.800781 19.15625 C 0.800781 15.527344 1.628906 12.277344 3.28125 9.394531 C 4.933594 6.507812 7.175781 4.238281 10.019531 2.628906 C 12.859375 1.019531 15.996094 0.207031 19.445312 0.207031 C 22.917969 0.207031 26.082031 1.019531 28.925781 2.628906 C 31.769531 4.238281 33.996094 6.492188 35.632812 9.363281 C 37.273438 12.234375 38.085938 15.511719 38.085938 19.167969 C 38.085938 22.824219 37.273438 26.085938 35.632812 28.957031 C 33.996094 31.828125 31.769531 34.085938 28.925781 35.695312 C 26.082031 37.304688 22.929688 38.117188 19.445312 38.117188 C 15.996094 38.117188 12.859375 37.304688 10.019531 35.695312 " clip-rule="nonzero"/></clipPath><clipPath id="aaaf710dc8"><rect x="0" width="39" y="0" height="39"/></clipPath><clipPath id="83839c752c"><path d="M 568.355469 448.632812 L 589.335938 448.632812 L 589.335938 452.566406 L 568.355469 452.566406 Z M 568.355469 452.566406 L 573.203125 452.566406 L 573.203125 465.074219 L 568.355469 465.074219 Z M 568.355469 465.074219 L 586.296875 465.074219 L 586.296875 469.007812 L 568.355469 469.007812 Z M 568.355469 469.007812 L 573.203125 469.007812 L 573.203125 485.746094 L 568.355469 485.746094 Z M 568.355469 469.007812 " clip-rule="nonzero"/></clipPath><clipPath id="3a8a08b9eb"><path d="M 0.355469 0.632812 L 21.335938 0.632812 L 21.335938 4.566406 L 0.355469 4.566406 Z M 0.355469 4.566406 L 5.203125 4.566406 L 5.203125 17.074219 L 0.355469 17.074219 Z M 0.355469 17.074219 L 18.296875 17.074219 L 18.296875 21.007812 L 0.355469 21.007812 Z M 0.355469 21.007812 L 5.203125 21.007812 L 5.203125 37.746094 L 0.355469 37.746094 Z M 0.355469 21.007812 " clip-rule="nonzero"/></clipPath><clipPath id="6a8449a875"><rect x="0" width="22" y="0" height="38"/></clipPath><clipPath id="e163d0d002"><path d="M 288.683594 7.644531 L 671.429688 7.644531 L 671.429688 282.320312 L 288.683594 282.320312 Z M 288.683594 7.644531 " clip-rule="nonzero"/></clipPath><clipPath id="2d6ead134e"><path d="M 620.628906 171.269531 C 618.933594 171.6875 617.097656 171.589844 615.207031 171.226562 C 615.011719 171.183594 614.816406 171.140625 614.578125 171.101562 C 613.960938 170.972656 613.332031 170.820312 612.714844 170.652344 C 605.332031 168.171875 606.789062 159.140625 607.113281 157.558594 C 607.9375 153.773438 609.046875 150.230469 611.246094 147.597656 C 614.957031 143.144531 620.25 140.035156 625.585938 136.941406 C 627.40625 136.238281 629.730469 134.753906 632.070312 133.046875 C 632.351562 132.878906 632.617188 132.695312 632.898438 132.515625 C 632.882812 132.488281 632.882812 132.472656 632.867188 132.457031 C 637.699219 128.832031 642.335938 124.546875 642.335938 124.546875 L 629.675781 129.433594 C 586.328125 144.753906 547.167969 133.941406 509.632812 113.089844 C 509.632812 112.753906 509.621094 112.417969 509.621094 112.09375 C 521.1875 104.785156 545.445312 102.25 545.445312 102.25 C 538.472656 98.285156 529.828125 96.324219 524.199219 95.414062 C 524.171875 95.414062 524.144531 95.398438 524.113281 95.398438 C 524.085938 95.398438 524.074219 95.398438 524.058594 95.386719 C 520.601562 94.824219 518.304688 94.671875 518.304688 94.671875 L 518.289062 94.683594 C 493.175781 92.207031 469.730469 98.691406 447.054688 109.894531 C 431.621094 117.488281 416.019531 124.910156 399.984375 131.140625 C 384.101562 137.332031 367.9375 137.515625 352.125 131.042969 L 352.125 130.429688 L 347.238281 128.886719 C 344.5625 127.765625 341.707031 127.039062 338.863281 126.253906 L 324.871094 121.871094 C 327.503906 124.054688 331.230469 127.472656 334.660156 130.664062 C 336.257812 132.191406 337.867188 133.707031 339.480469 135.21875 C 341.746094 137.375 343.300781 138.886719 343.371094 138.957031 C 345.332031 140.890625 347.222656 142.878906 348.976562 144.992188 C 352.519531 149.265625 356.242188 154.347656 357.210938 159.574219 C 358.511719 166.660156 354.074219 169.855469 346.789062 167.332031 C 345.023438 166.714844 343.316406 165.945312 341.648438 165.105469 C 325.359375 157.050781 308.835938 147.765625 307.671875 127.640625 C 306.539062 108.269531 321.171875 97.011719 335.921875 87.21875 C 339.015625 85.160156 342.320312 83.367188 345.65625 81.703125 C 362.953125 73.089844 366.578125 72.90625 368.402344 87.25 C 368.402344 87.277344 366.972656 110.511719 385.304688 118.257812 C 385.304688 118.257812 384.855469 101.96875 386.832031 89.378906 C 390.515625 70.722656 398.917969 54.699219 415.445312 43.3125 C 437.390625 28.199219 462.617188 23.257812 488.652344 23.71875 C 526.019531 24.378906 558.667969 34.769531 576.820312 71.617188 C 581.71875 81.546875 591.257812 81.757812 601.019531 81.8125 C 622 81.941406 641.0625 86.113281 650.699219 108.199219 C 662.097656 134.363281 648.332031 164.238281 620.628906 171.269531 M 631.285156 73.003906 C 602.617188 66.925781 583.878906 51.167969 563.527344 32.234375 C 537.980469 8.480469 503.429688 5.792969 469.660156 8.984375 C 435.460938 12.207031 403.765625 21.730469 381.355469 50.988281 C 378.203125 55.105469 371.074219 57.207031 365.429688 58.199219 C 343.132812 62.148438 323.976562 71.980469 307.476562 87.207031 C 274.480469 117.640625 289.492188 157.585938 321.425781 173.957031 C 339.183594 183.074219 348.007812 187.332031 352.125 194.546875 C 352.894531 195.902344 353.5 197.390625 353.976562 199.011719 L 354.101562 199.011719 L 354.101562 282.066406 C 354.101562 281.96875 354.113281 281.871094 354.128906 281.757812 C 355.023438 272.824219 359.898438 265.609375 367.953125 261.242188 C 370.109375 260.0625 370.667969 258.59375 370.585938 256.308594 C 370.460938 252.457031 370.753906 248.578125 370.488281 244.742188 C 370.429688 243.929688 370.472656 243.269531 370.597656 242.726562 C 371.003906 241.042969 372.320312 240.566406 374.617188 240.667969 C 379.785156 240.863281 384.984375 240.636719 390.136719 240.777344 C 392.589844 240.847656 393.960938 240.160156 395.011719 237.667969 C 395.152344 237.320312 395.304688 236.96875 395.460938 236.632812 C 396.203125 234.980469 397.027344 233.453125 397.910156 232.011719 C 401.523438 226.074219 406.3125 221.84375 412.351562 219.628906 C 415.949219 218.300781 420.011719 217.667969 424.507812 217.796875 C 430.558594 217.949219 436.410156 217.289062 442.167969 216.085938 C 448.09375 214.839844 453.890625 213.003906 459.632812 210.863281 C 460.808594 210.414062 461.972656 209.964844 463.164062 209.503906 C 464.144531 209.113281 465.054688 208.734375 465.90625 208.371094 C 472.335938 205.566406 475.363281 203.160156 480.570312 197.542969 C 485.207031 203.03125 490.78125 206.605469 496.816406 209.222656 C 503.105469 211.953125 509.886719 213.675781 516.59375 215.441406 C 518.890625 216.042969 521.273438 216.535156 523.667969 216.882812 C 527.28125 217.429688 530.949219 217.667969 534.550781 217.585938 C 545.027344 217.375 553.261719 220.398438 559.382812 226.914062 C 562.210938 229.921875 564.578125 233.664062 566.511719 238.171875 C 567.027344 239.390625 569.058594 240.539062 570.445312 240.609375 C 575.613281 240.902344 580.796875 240.945312 585.964844 240.652344 C 589.757812 240.429688 590.796875 241.914062 590.542969 245.539062 C 590.277344 249.378906 590.363281 253.257812 590.570312 257.109375 C 590.640625 258.300781 591.34375 260.007812 592.265625 260.511719 C 599.464844 264.433594 603.722656 270.078125 605.992188 276.785156 L 605.992188 199.011719 L 605.976562 199.011719 C 606.246094 196.183594 607.027344 194.113281 608.609375 192.390625 C 611.539062 189.210938 617.183594 187.164062 627.238281 183.539062 C 628.121094 183.214844 628.960938 182.851562 629.84375 182.527344 C 654.4375 173.355469 669.4375 156.410156 670.976562 129.628906 C 672.335938 105.777344 656.691406 78.382812 631.273438 72.992188 " clip-rule="nonzero"/></clipPath><clipPath id="52f84352a4"><path d="M 0.683594 0.644531 L 383.429688 0.644531 L 383.429688 275.070312 L 0.683594 275.070312 Z M 0.683594 0.644531 " clip-rule="nonzero"/></clipPath><clipPath id="a7559ce726"><path d="M 332.628906 164.269531 C 330.933594 164.6875 329.097656 164.589844 327.207031 164.226562 C 327.011719 164.183594 326.816406 164.140625 326.578125 164.101562 C 325.960938 163.972656 325.332031 163.820312 324.714844 163.652344 C 317.332031 161.171875 318.789062 152.140625 319.113281 150.558594 C 319.9375 146.773438 321.046875 143.230469 323.246094 140.597656 C 326.957031 136.144531 332.25 133.035156 337.585938 129.941406 C 339.40625 129.238281 341.730469 127.753906 344.070312 126.046875 C 344.351562 125.878906 344.617188 125.695312 344.898438 125.515625 C 344.882812 125.488281 344.882812 125.472656 344.867188 125.457031 C 349.699219 121.832031 354.335938 117.546875 354.335938 117.546875 L 341.675781 122.433594 C 298.328125 137.753906 259.167969 126.941406 221.632812 106.089844 C 221.632812 105.753906 221.621094 105.417969 221.621094 105.09375 C 233.1875 97.785156 257.445312 95.25 257.445312 95.25 C 250.472656 91.285156 241.828125 89.324219 236.199219 88.414062 C 236.171875 88.414062 236.144531 88.398438 236.113281 88.398438 C 236.085938 88.398438 236.074219 88.398438 236.058594 88.386719 C 232.601562 87.824219 230.304688 87.671875 230.304688 87.671875 L 230.289062 87.683594 C 205.175781 85.207031 181.730469 91.691406 159.054688 102.894531 C 143.621094 110.488281 128.019531 117.910156 111.984375 124.140625 C 96.101562 130.332031 79.9375 130.515625 64.125 124.042969 L 64.125 123.429688 L 59.238281 121.886719 C 56.5625 120.765625 53.707031 120.039062 50.863281 119.253906 L 36.871094 114.871094 C 39.503906 117.054688 43.230469 120.472656 46.660156 123.664062 C 48.257812 125.191406 49.867188 126.707031 51.480469 128.21875 C 53.746094 130.375 55.300781 131.886719 55.371094 131.957031 C 57.332031 133.890625 59.222656 135.878906 60.976562 137.992188 C 64.519531 142.265625 68.242188 147.347656 69.210938 152.574219 C 70.511719 159.660156 66.074219 162.855469 58.789062 160.332031 C 57.023438 159.714844 55.316406 158.945312 53.648438 158.105469 C 37.359375 150.050781 20.835938 140.765625 19.671875 120.640625 C 18.539062 101.269531 33.171875 90.011719 47.921875 80.21875 C 51.015625 78.160156 54.320312 76.367188 57.65625 74.703125 C 74.953125 66.089844 78.578125 65.90625 80.402344 80.25 C 80.402344 80.277344 78.972656 103.511719 97.304688 111.257812 C 97.304688 111.257812 96.855469 94.96875 98.832031 82.378906 C 102.515625 63.722656 110.917969 47.699219 127.445312 36.3125 C 149.390625 21.199219 174.617188 16.257812 200.652344 16.71875 C 238.019531 17.378906 270.667969 27.769531 288.820312 64.617188 C 293.71875 74.546875 303.257812 74.757812 313.019531 74.8125 C 334 74.941406 353.0625 79.113281 362.699219 101.199219 C 374.097656 127.363281 360.332031 157.238281 332.628906 164.269531 M 343.285156 66.003906 C 314.617188 59.925781 295.878906 44.167969 275.527344 25.234375 C 249.980469 1.480469 215.429688 -1.207031 181.660156 1.984375 C 147.460938 5.207031 115.765625 14.730469 93.355469 43.988281 C 90.203125 48.105469 83.074219 50.207031 77.429688 51.199219 C 55.132812 55.148438 35.976562 64.980469 19.476562 80.207031 C -13.519531 110.640625 1.492188 150.585938 33.425781 166.957031 C 51.183594 176.074219 60.007812 180.332031 64.125 187.546875 C 64.894531 188.902344 65.5 190.390625 65.976562 192.011719 L 66.101562 192.011719 L 66.101562 275.066406 C 66.101562 274.96875 66.113281 274.871094 66.128906 274.757812 C 67.023438 265.824219 71.898438 258.609375 79.953125 254.242188 C 82.109375 253.0625 82.667969 251.59375 82.585938 249.308594 C 82.460938 245.457031 82.753906 241.578125 82.488281 237.742188 C 82.429688 236.929688 82.472656 236.269531 82.597656 235.726562 C 83.003906 234.042969 84.320312 233.566406 86.617188 233.667969 C 91.785156 233.863281 96.984375 233.636719 102.136719 233.777344 C 104.589844 233.847656 105.960938 233.160156 107.011719 230.667969 C 107.152344 230.320312 107.304688 229.96875 107.460938 229.632812 C 108.203125 227.980469 109.027344 226.453125 109.910156 225.011719 C 113.523438 219.074219 118.3125 214.84375 124.351562 212.628906 C 127.949219 211.300781 132.011719 210.667969 136.507812 210.796875 C 142.558594 210.949219 148.410156 210.289062 154.167969 209.085938 C 160.09375 207.839844 165.890625 206.003906 171.632812 203.863281 C 172.808594 203.414062 173.972656 202.964844 175.164062 202.503906 C 176.144531 202.113281 177.054688 201.734375 177.90625 201.371094 C 184.335938 198.566406 187.363281 196.160156 192.570312 190.542969 C 197.207031 196.03125 202.78125 199.605469 208.816406 202.222656 C 215.105469 204.953125 221.886719 206.675781 228.59375 208.441406 C 230.890625 209.042969 233.273438 209.535156 235.667969 209.882812 C 239.28125 210.429688 242.949219 210.667969 246.550781 210.585938 C 257.027344 210.375 265.261719 213.398438 271.382812 219.914062 C 274.210938 222.921875 276.578125 226.664062 278.511719 231.171875 C 279.027344 232.390625 281.058594 233.539062 282.445312 233.609375 C 287.613281 233.902344 292.796875 233.945312 297.964844 233.652344 C 301.757812 233.429688 302.796875 234.914062 302.542969 238.539062 C 302.277344 242.378906 302.363281 246.257812 302.570312 250.109375 C 302.640625 251.300781 303.34375 253.007812 304.265625 253.511719 C 311.464844 257.433594 315.722656 263.078125 317.992188 269.785156 L 317.992188 192.011719 L 317.976562 192.011719 C 318.246094 189.183594 319.027344 187.113281 320.609375 185.390625 C 323.539062 182.210938 329.183594 180.164062 339.238281 176.539062 C 340.121094 176.214844 340.960938 175.851562 341.84375 175.527344 C 366.4375 166.355469 381.4375 149.410156 382.976562 122.628906 C 384.335938 98.777344 368.691406 71.382812 343.273438 65.992188 " clip-rule="nonzero"/></clipPath><clipPath id="b28611fd45"><rect x="0" width="384" y="0" height="276"/></clipPath><clipPath id="b209458c60"><path d="M 455.289062 231 L 473 231 L 473 248.546875 L 455.289062 248.546875 Z M 455.289062 231 " clip-rule="nonzero"/></clipPath><clipPath id="dd67630774"><path d="M 472.671875 239.839844 C 472.671875 244.546875 468.863281 248.355469 464.15625 248.355469 C 459.449219 248.355469 455.640625 244.546875 455.640625 239.839844 C 455.640625 235.132812 459.449219 231.324219 464.15625 231.324219 C 468.863281 231.324219 472.671875 235.132812 472.671875 239.839844 " clip-rule="nonzero"/></clipPath><clipPath id="f3e195ba03"><path d="M 0.566406 0.285156 L 17.8125 0.285156 L 17.8125 17.53125 L 0.566406 17.53125 Z M 0.566406 0.285156 " clip-rule="nonzero"/></clipPath><clipPath id="0af96b7082"><path d="M 17.671875 8.839844 C 17.671875 13.546875 13.863281 17.355469 9.15625 17.355469 C 4.449219 17.355469 0.640625 13.546875 0.640625 8.839844 C 0.640625 4.132812 4.449219 0.324219 9.15625 0.324219 C 13.863281 0.324219 17.671875 4.132812 17.671875 8.839844 " clip-rule="nonzero"/></clipPath><clipPath id="6eab9a0f11"><rect x="0" width="18" y="0" height="18"/></clipPath><clipPath id="af9b7bf72a"><path d="M 487 231 L 504.820312 231 L 504.820312 248.546875 L 487 248.546875 Z M 487 231 " clip-rule="nonzero"/></clipPath><clipPath id="30c0808432"><path d="M 504.367188 239.839844 C 504.367188 244.546875 500.558594 248.355469 495.851562 248.355469 C 491.144531 248.355469 487.335938 244.546875 487.335938 239.839844 C 487.335938 235.132812 491.144531 231.324219 495.851562 231.324219 C 500.558594 231.324219 504.367188 235.132812 504.367188 239.839844 " clip-rule="nonzero"/></clipPath><clipPath id="5eac710971"><path d="M 0.1875 0.285156 L 17.433594 0.285156 L 17.433594 17.53125 L 0.1875 17.53125 Z M 0.1875 0.285156 " clip-rule="nonzero"/></clipPath><clipPath id="0fdbe94e20"><path d="M 17.367188 8.839844 C 17.367188 13.546875 13.558594 17.355469 8.851562 17.355469 C 4.144531 17.355469 0.335938 13.546875 0.335938 8.839844 C 0.335938 4.132812 4.144531 0.324219 8.851562 0.324219 C 13.558594 0.324219 17.367188 4.132812 17.367188 8.839844 " clip-rule="nonzero"/></clipPath><clipPath id="02b10e15f0"><rect x="0" width="18" y="0" height="18"/></clipPath><clipPath id="c0ec2311ef"><path d="M 503 261 L 520.582031 261 L 520.582031 278.941406 L 503 278.941406 Z M 503 261 " clip-rule="nonzero"/></clipPath><clipPath id="2a6099812b"><path d="M 520.445312 270.359375 C 520.445312 275.0625 516.636719 278.875 511.929688 278.875 C 507.222656 278.875 503.414062 275.0625 503.414062 270.359375 C 503.414062 265.652344 507.222656 261.84375 511.929688 261.84375 C 516.636719 261.84375 520.445312 265.652344 520.445312 270.359375 " clip-rule="nonzero"/></clipPath><clipPath id="08e21101c9"><path d="M 0.238281 0.707031 L 17.484375 0.707031 L 17.484375 17.941406 L 0.238281 17.941406 Z M 0.238281 0.707031 " clip-rule="nonzero"/></clipPath><clipPath id="667ab0485f"><path d="M 17.445312 9.359375 C 17.445312 14.0625 13.636719 17.875 8.929688 17.875 C 4.222656 17.875 0.414062 14.0625 0.414062 9.359375 C 0.414062 4.652344 4.222656 0.84375 8.929688 0.84375 C 13.636719 0.84375 17.445312 4.652344 17.445312 9.359375 " clip-rule="nonzero"/></clipPath><clipPath id="81c4058f5a"><rect x="0" width="18" y="0" height="18"/></clipPath><clipPath id="8c8915c507"><path d="M 471.050781 261 L 489 261 L 489 278.941406 L 471.050781 278.941406 Z M 471.050781 261 " clip-rule="nonzero"/></clipPath><clipPath id="00b0eb1b65"><path d="M 488.5 270.359375 C 488.5 275.0625 484.6875 278.875 479.984375 278.875 C 475.277344 278.875 471.46875 275.0625 471.46875 270.359375 C 471.46875 265.652344 475.277344 261.84375 479.984375 261.84375 C 484.6875 261.84375 488.5 265.652344 488.5 270.359375 " clip-rule="nonzero"/></clipPath><clipPath id="9458b4e4a8"><path d="M 0.375 0.707031 L 17.625 0.707031 L 17.625 17.941406 L 0.375 17.941406 Z M 0.375 0.707031 " clip-rule="nonzero"/></clipPath><clipPath id="c282216195"><path d="M 17.5 9.359375 C 17.5 14.0625 13.6875 17.875 8.984375 17.875 C 4.277344 17.875 0.46875 14.0625 0.46875 9.359375 C 0.46875 4.652344 4.277344 0.84375 8.984375 0.84375 C 13.6875 0.84375 17.5 4.652344 17.5 9.359375 " clip-rule="nonzero"/></clipPath><clipPath id="db9ac2408b"><rect x="0" width="18" y="0" height="18"/></clipPath><clipPath id="5186efdfdd"><path d="M 439.53125 261 L 457 261 L 457 278.941406 L 439.53125 278.941406 Z M 439.53125 261 " clip-rule="nonzero"/></clipPath><clipPath id="9f0a6f0791"><path d="M 456.578125 270.359375 C 456.578125 275.0625 452.769531 278.875 448.066406 278.875 C 443.359375 278.875 439.550781 275.0625 439.550781 270.359375 C 439.550781 265.652344 443.359375 261.84375 448.066406 261.84375 C 452.769531 261.84375 456.578125 265.652344 456.578125 270.359375 " clip-rule="nonzero"/></clipPath><clipPath id="397c0e56dc"><path d="M 0.53125 0.707031 L 17.761719 0.707031 L 17.761719 17.941406 L 0.53125 17.941406 Z M 0.53125 0.707031 " clip-rule="nonzero"/></clipPath><clipPath id="878a7084b3"><path d="M 17.578125 9.359375 C 17.578125 14.0625 13.769531 17.875 9.066406 17.875 C 4.359375 17.875 0.550781 14.0625 0.550781 9.359375 C 0.550781 4.652344 4.359375 0.84375 9.066406 0.84375 C 13.769531 0.84375 17.578125 4.652344 17.578125 9.359375 " clip-rule="nonzero"/></clipPath><clipPath id="e921738a79"><rect x="0" width="18" y="0" height="18"/></clipPath><clipPath id="04230f7c80"><path d="M 652.847656 448.84375 L 685.21875 448.84375 L 685.21875 485.765625 L 652.847656 485.765625 Z M 652.847656 448.84375 " clip-rule="nonzero"/></clipPath><clipPath id="1c7f5ff08a"><path d="M 675.75 473.550781 L 669.039062 454.808594 L 662.332031 473.550781 Z M 677.136719 477.484375 L 660.945312 477.484375 L 657.960938 485.746094 L 652.847656 485.746094 L 666.265625 448.84375 L 671.855469 448.84375 L 685.214844 485.746094 L 680.105469 485.746094 Z M 677.136719 477.484375 " clip-rule="nonzero"/></clipPath><clipPath id="6e1bae1059"><path d="M 0.847656 0.84375 L 33.21875 0.84375 L 33.21875 37.765625 L 0.847656 37.765625 Z M 0.847656 0.84375 " clip-rule="nonzero"/></clipPath><clipPath id="2048ba0d52"><path d="M 23.75 25.550781 L 17.039062 6.808594 L 10.332031 25.550781 Z M 25.136719 29.484375 L 8.945312 29.484375 L 5.960938 37.746094 L 0.847656 37.746094 L 14.265625 0.84375 L 19.855469 0.84375 L 33.214844 37.746094 L 28.105469 37.746094 Z M 25.136719 29.484375 " clip-rule="nonzero"/></clipPath><clipPath id="cd85838561"><rect x="0" width="34" y="0" height="38"/></clipPath><clipPath id="0e3559f56a"><path d="M 713.96875 448.632812 L 739.3125 448.632812 L 739.3125 485.753906 L 713.96875 485.753906 Z M 713.96875 448.632812 " clip-rule="nonzero"/></clipPath><clipPath id="49ce79ac79"><path d="M 718.816406 466.683594 L 725.945312 466.683594 C 728.578125 466.683594 730.539062 466.039062 731.855469 464.738281 C 733.171875 463.433594 733.828125 461.710938 733.828125 459.542969 C 733.828125 457.34375 733.183594 455.632812 731.882812 454.429688 C 730.578125 453.226562 728.605469 452.621094 725.945312 452.621094 L 718.816406 452.621094 Z M 733.507812 485.746094 L 724.667969 470.5625 L 718.816406 470.5625 L 718.816406 485.746094 L 713.96875 485.746094 L 713.96875 448.632812 L 725.945312 448.632812 C 728.746094 448.632812 731.113281 449.105469 733.042969 450.074219 C 734.976562 451.039062 736.421875 452.328125 737.386719 453.953125 C 738.351562 455.578125 738.828125 457.453125 738.828125 459.542969 C 738.828125 462.089844 738.085938 464.34375 736.617188 466.304688 C 735.144531 468.265625 732.933594 469.554688 729.992188 470.183594 L 739.304688 485.730469 Z M 733.507812 485.746094 " clip-rule="nonzero"/></clipPath><clipPath id="1f2860a0cf"><path d="M 0.96875 0.632812 L 26.3125 0.632812 L 26.3125 37.753906 L 0.96875 37.753906 Z M 0.96875 0.632812 " clip-rule="nonzero"/></clipPath><clipPath id="397a66bbc8"><path d="M 5.816406 18.683594 L 12.945312 18.683594 C 15.578125 18.683594 17.539062 18.039062 18.855469 16.738281 C 20.171875 15.433594 20.828125 13.710938 20.828125 11.542969 C 20.828125 9.34375 20.183594 7.632812 18.882812 6.429688 C 17.578125 5.226562 15.605469 4.621094 12.945312 4.621094 L 5.816406 4.621094 Z M 20.507812 37.746094 L 11.667969 22.5625 L 5.816406 22.5625 L 5.816406 37.746094 L 0.96875 37.746094 L 0.96875 0.632812 L 12.945312 0.632812 C 15.746094 0.632812 18.113281 1.105469 20.042969 2.074219 C 21.976562 3.039062 23.421875 4.328125 24.386719 5.953125 C 25.351562 7.578125 25.828125 9.453125 25.828125 11.542969 C 25.828125 14.089844 25.085938 16.34375 23.617188 18.304688 C 22.144531 20.265625 19.933594 21.554688 16.992188 22.183594 L 26.304688 37.730469 Z M 20.507812 37.746094 " clip-rule="nonzero"/></clipPath><clipPath id="4e7a09707b"><rect x="0" width="27" y="0" height="38"/></clipPath><clipPath id="444f77c0f9"><path d="M 766.890625 448.84375 L 799.261719 448.84375 L 799.261719 485.765625 L 766.890625 485.765625 Z M 766.890625 448.84375 " clip-rule="nonzero"/></clipPath><clipPath id="d36da674f1"><path d="M 789.789062 473.550781 L 783.082031 454.808594 L 776.371094 473.550781 Z M 791.175781 477.484375 L 774.984375 477.484375 L 772.003906 485.746094 L 766.890625 485.746094 L 780.308594 448.84375 L 785.894531 448.84375 L 799.257812 485.746094 L 794.144531 485.746094 Z M 791.175781 477.484375 " clip-rule="nonzero"/></clipPath><clipPath id="d8c748a04f"><path d="M 0.890625 0.84375 L 33.261719 0.84375 L 33.261719 37.765625 L 0.890625 37.765625 Z M 0.890625 0.84375 " clip-rule="nonzero"/></clipPath><clipPath id="e0ce48ff11"><path d="M 23.789062 25.550781 L 17.082031 6.808594 L 10.371094 25.550781 Z M 25.175781 29.484375 L 8.984375 29.484375 L 6.003906 37.746094 L 0.890625 37.746094 L 14.308594 0.84375 L 19.894531 0.84375 L 33.257812 37.746094 L 28.144531 37.746094 Z M 25.175781 29.484375 " clip-rule="nonzero"/></clipPath><clipPath id="109f2b423f"><rect x="0" width="34" y="0" height="38"/></clipPath><clipPath id="606b21c302"><path d="M 828.011719 448.632812 L 853.941406 448.632812 L 853.941406 485.800781 L 828.011719 485.800781 Z M 828.011719 448.632812 " clip-rule="nonzero"/></clipPath><clipPath id="f8c87a4fc9"><path d="M 847.074219 480.046875 C 848.417969 478.910156 849.105469 477.328125 849.105469 475.3125 C 849.105469 473.253906 848.390625 471.628906 846.976562 470.4375 C 845.5625 469.246094 843.65625 468.660156 841.277344 468.660156 L 832.859375 468.660156 L 832.859375 481.753906 L 841.429688 481.753906 C 843.839844 481.753906 845.730469 481.195312 847.074219 480.046875 M 832.859375 464.652344 L 841.011719 464.652344 C 843.277344 464.652344 845.042969 464.121094 846.277344 463.058594 C 847.507812 461.992188 848.140625 460.523438 848.140625 458.644531 C 848.140625 456.769531 847.523438 455.296875 846.277344 454.21875 C 845.03125 453.140625 843.238281 452.621094 840.898438 452.621094 L 832.859375 452.621094 Z M 850.296875 468.265625 C 851.417969 469.148438 852.296875 470.253906 852.957031 471.570312 C 853.613281 472.890625 853.9375 474.289062 853.9375 475.773438 C 853.9375 477.652344 853.460938 479.34375 852.496094 480.859375 C 851.527344 482.371094 850.140625 483.5625 848.320312 484.429688 C 846.5 485.296875 844.328125 485.730469 841.851562 485.730469 L 828.011719 485.730469 L 828.011719 448.632812 L 841.316406 448.632812 C 843.839844 448.632812 845.980469 449.050781 847.761719 449.878906 C 849.539062 450.703125 850.871094 451.839844 851.753906 453.265625 C 852.632812 454.695312 853.082031 456.277344 853.082031 458.058594 C 853.082031 460.253906 852.496094 462.078125 851.304688 463.519531 C 850.113281 464.960938 848.546875 465.996094 846.597656 466.628906 C 847.941406 466.839844 849.175781 467.398438 850.296875 468.28125 " clip-rule="nonzero"/></clipPath><clipPath id="cef3b472a5"><path d="M 0.0117188 0.632812 L 25.941406 0.632812 L 25.941406 37.800781 L 0.0117188 37.800781 Z M 0.0117188 0.632812 " clip-rule="nonzero"/></clipPath><clipPath id="a61aab3055"><path d="M 19.074219 32.046875 C 20.417969 30.910156 21.105469 29.328125 21.105469 27.3125 C 21.105469 25.253906 20.390625 23.628906 18.976562 22.4375 C 17.5625 21.246094 15.65625 20.660156 13.277344 20.660156 L 4.859375 20.660156 L 4.859375 33.753906 L 13.429688 33.753906 C 15.839844 33.753906 17.730469 33.195312 19.074219 32.046875 M 4.859375 16.652344 L 13.011719 16.652344 C 15.277344 16.652344 17.042969 16.121094 18.277344 15.058594 C 19.507812 13.992188 20.140625 12.523438 20.140625 10.644531 C 20.140625 8.769531 19.523438 7.296875 18.277344 6.21875 C 17.03125 5.140625 15.238281 4.621094 12.898438 4.621094 L 4.859375 4.621094 Z M 22.296875 20.265625 C 23.417969 21.148438 24.296875 22.253906 24.957031 23.570312 C 25.613281 24.890625 25.9375 26.289062 25.9375 27.773438 C 25.9375 29.652344 25.460938 31.34375 24.496094 32.859375 C 23.527344 34.371094 22.140625 35.5625 20.320312 36.429688 C 18.5 37.296875 16.328125 37.730469 13.851562 37.730469 L 0.0117188 37.730469 L 0.0117188 0.632812 L 13.316406 0.632812 C 15.839844 0.632812 17.980469 1.050781 19.761719 1.878906 C 21.539062 2.703125 22.871094 3.839844 23.753906 5.265625 C 24.632812 6.695312 25.082031 8.277344 25.082031 10.058594 C 25.082031 12.253906 24.496094 14.078125 23.304688 15.519531 C 22.113281 16.960938 20.546875 17.996094 18.597656 18.628906 C 19.941406 18.839844 21.175781 19.398438 22.296875 20.28125 " clip-rule="nonzero"/></clipPath><clipPath id="f74bea9472"><rect x="0" width="26" y="0" height="38"/></clipPath><clipPath id="87bff80dd5"><path d="M 883.542969 448.628906 L 888.390625 448.628906 L 888.390625 485.746094 L 883.542969 485.746094 Z M 883.542969 448.628906 " clip-rule="nonzero"/></clipPath><clipPath id="cec78f6f85"><path d="M 0.542969 0.628906 L 5.390625 0.628906 L 5.390625 37.746094 L 0.542969 37.746094 Z M 0.542969 0.628906 " clip-rule="nonzero"/></clipPath><clipPath id="d700c2651d"><rect x="0" width="6" y="0" height="38"/></clipPath><clipPath id="a17acf7f9b"><path d="M 579 337 L 668.203125 337 L 668.203125 425.808594 L 579 425.808594 Z M 579 337 " clip-rule="nonzero"/></clipPath><clipPath id="ace1eef776"><path d="M 660.105469 417.589844 C 657.792969 415.277344 655.847656 412.183594 654.25 408.273438 L 624.472656 337.265625 L 618.492188 337.265625 L 579.265625 425.023438 L 586.183594 425.023438 L 599.878906 394.84375 L 615.300781 360.136719 L 629.808594 394.578125 C 630.046875 394.96875 635.511719 408.273438 635.511719 408.273438 C 637.640625 413.332031 640.1875 417.097656 643.15625 419.578125 C 646.125 422.054688 649.222656 423.679688 652.472656 424.421875 C 655.71875 425.164062 658.789062 425.558594 661.714844 425.558594 C 662.695312 425.558594 663.816406 425.488281 665.105469 425.359375 C 666.394531 425.234375 667.386719 425.066406 668.101562 424.898438 L 668.101562 421.566406 C 665.089844 421.214844 662.429688 419.886719 660.117188 417.574219 " clip-rule="nonzero"/></clipPath><clipPath id="40fec32e5b"><path d="M 0.175781 0.167969 L 89.203125 0.167969 L 89.203125 88.5625 L 0.175781 88.5625 Z M 0.175781 0.167969 " clip-rule="nonzero"/></clipPath><clipPath id="13d6cce728"><path d="M 81.105469 80.589844 C 78.792969 78.277344 76.847656 75.183594 75.25 71.273438 L 45.472656 0.265625 L 39.492188 0.265625 L 0.265625 88.023438 L 7.183594 88.023438 L 20.878906 57.84375 L 36.300781 23.136719 L 50.808594 57.578125 C 51.046875 57.96875 56.511719 71.273438 56.511719 71.273438 C 58.640625 76.332031 61.1875 80.097656 64.15625 82.578125 C 67.125 85.054688 70.222656 86.679688 73.472656 87.421875 C 76.71875 88.164062 79.789062 88.558594 82.714844 88.558594 C 83.695312 88.558594 84.816406 88.488281 86.105469 88.359375 C 87.394531 88.234375 88.386719 88.066406 89.101562 87.898438 L 89.101562 84.566406 C 86.089844 84.214844 83.429688 82.886719 81.117188 80.574219 " clip-rule="nonzero"/></clipPath><clipPath id="df24bed771"><rect x="0" width="90" y="0" height="89"/></clipPath><clipPath id="d9d608a220"><path d="M 472.484375 337 L 575.605469 337 L 575.605469 431.28125 L 472.484375 431.28125 Z M 472.484375 337 " clip-rule="nonzero"/></clipPath><clipPath id="44cde797fd"><path d="M 575.539062 431.003906 C 569.152344 431.003906 563.96875 430.011719 559.976562 428.007812 C 555.988281 426.003906 553.085938 422.910156 551.265625 418.695312 C 549.445312 414.480469 548.535156 409.058594 548.535156 402.40625 L 548.535156 355.347656 L 519.433594 425.023438 L 515.035156 425.023438 L 479.402344 352.6875 L 479.402344 425.023438 L 472.75 425.023438 L 472.75 337.265625 L 488.96875 337.265625 L 521.15625 402.558594 L 548.410156 337.265625 L 565.832031 337.265625 L 565.832031 402.421875 C 565.832031 410.488281 566.519531 416.539062 567.890625 420.570312 C 569.265625 424.605469 571.8125 426.972656 575.539062 427.6875 Z M 575.539062 431.003906 " clip-rule="nonzero"/></clipPath><clipPath id="cd8cfdeedd"><path d="M 0.574219 0.167969 L 103.582031 0.167969 L 103.582031 94.074219 L 0.574219 94.074219 Z M 0.574219 0.167969 " clip-rule="nonzero"/></clipPath><clipPath id="99753d15b7"><path d="M 103.539062 94.003906 C 97.152344 94.003906 91.96875 93.011719 87.976562 91.007812 C 83.988281 89.003906 81.085938 85.910156 79.265625 81.695312 C 77.445312 77.480469 76.535156 72.058594 76.535156 65.40625 L 76.535156 18.347656 L 47.433594 88.023438 L 43.035156 88.023438 L 7.402344 15.6875 L 7.402344 88.023438 L 0.75 88.023438 L 0.75 0.265625 L 16.96875 0.265625 L 49.15625 65.558594 L 76.410156 0.265625 L 93.832031 0.265625 L 93.832031 65.421875 C 93.832031 73.488281 94.519531 79.539062 95.890625 83.570312 C 97.265625 87.605469 99.8125 89.972656 103.539062 90.6875 Z M 103.539062 94.003906 " clip-rule="nonzero"/></clipPath><clipPath id="d44b122ebc"><rect x="0" width="104" y="0" height="95"/></clipPath><clipPath id="9397b32ce0"><path d="M 664.414062 337 L 746.488281 337 L 746.488281 425.808594 L 664.414062 425.808594 Z M 664.414062 337 " clip-rule="nonzero"/></clipPath><clipPath id="8db20371a5"><path d="M 740.285156 425.429688 L 683.914062 359.210938 L 683.914062 425.039062 L 677.261719 425.039062 L 677.261719 353.21875 C 677.261719 349.855469 676.433594 347.015625 674.796875 344.703125 C 673.15625 342.390625 669.992188 341.242188 665.285156 341.242188 L 664.628906 341.242188 L 664.628906 337.265625 L 673.941406 337.265625 C 678.996094 337.265625 683.085938 337.925781 686.238281 339.253906 C 689.390625 340.585938 691.980469 342.574219 694.011719 345.234375 L 739.753906 398.429688 L 739.753906 337.265625 L 746.40625 337.265625 L 746.40625 425.429688 Z M 740.285156 425.429688 " clip-rule="nonzero"/></clipPath><clipPath id="06fc6a0f80"><path d="M 0.457031 0.167969 L 82.488281 0.167969 L 82.488281 88.5625 L 0.457031 88.5625 Z M 0.457031 0.167969 " clip-rule="nonzero"/></clipPath><clipPath id="2a487df44b"><path d="M 76.285156 88.429688 L 19.914062 22.210938 L 19.914062 88.039062 L 13.261719 88.039062 L 13.261719 16.21875 C 13.261719 12.855469 12.433594 10.015625 10.796875 7.703125 C 9.15625 5.390625 5.992188 4.242188 1.285156 4.242188 L 0.628906 4.242188 L 0.628906 0.265625 L 9.941406 0.265625 C 14.996094 0.265625 19.085938 0.925781 22.238281 2.253906 C 25.390625 3.585938 27.980469 5.574219 30.011719 8.234375 L 75.753906 61.429688 L 75.753906 0.265625 L 82.40625 0.265625 L 82.40625 88.429688 Z M 76.285156 88.429688 " clip-rule="nonzero"/></clipPath><clipPath id="0a6ab61763"><rect x="0" width="83" y="0" height="89"/></clipPath><clipPath id="15a978c22e"><path d="M 760 337 L 833.617188 337 L 833.617188 425.386719 L 760 425.386719 Z M 760 337 " clip-rule="nonzero"/></clipPath><clipPath id="3dae4cc6c3"><path d="M 760.355469 425.023438 L 760.355469 420.765625 L 809.824219 343.121094 L 780.972656 343.121094 C 776.265625 343.121094 772.554688 344.3125 769.796875 346.707031 C 767.039062 349.101562 765.679688 353.273438 765.679688 359.199219 L 761.6875 359.199219 L 761.6875 347.910156 C 761.6875 346.132812 761.996094 344.4375 762.613281 342.785156 C 763.226562 341.132812 764.363281 339.816406 766 338.792969 C 767.640625 337.769531 769.976562 337.265625 773.003906 337.265625 L 833.507812 337.265625 L 781.378906 419.042969 L 832.835938 419.042969 L 832.835938 425.023438 Z M 760.355469 425.023438 " clip-rule="nonzero"/></clipPath><clipPath id="36c17cbe0c"><path d="M 0.28125 0.167969 L 73.585938 0.167969 L 73.585938 88.085938 L 0.28125 88.085938 Z M 0.28125 0.167969 " clip-rule="nonzero"/></clipPath><clipPath id="04738f35de"><path d="M 0.355469 88.023438 L 0.355469 83.765625 L 49.824219 6.121094 L 20.972656 6.121094 C 16.265625 6.121094 12.554688 7.3125 9.796875 9.707031 C 7.039062 12.101562 5.679688 16.273438 5.679688 22.199219 L 1.6875 22.199219 L 1.6875 10.910156 C 1.6875 9.132812 1.996094 7.4375 2.613281 5.785156 C 3.226562 4.132812 4.363281 2.816406 6 1.792969 C 7.640625 0.769531 9.976562 0.265625 13.003906 0.265625 L 73.507812 0.265625 L 21.378906 82.042969 L 72.835938 82.042969 L 72.835938 88.023438 Z M 0.355469 88.023438 " clip-rule="nonzero"/></clipPath><clipPath id="c0afe09109"><rect x="0" width="74" y="0" height="89"/></clipPath><clipPath id="ed7e5aef65"><path d="M 846.242188 337 L 874.445312 337 L 874.445312 425.386719 L 846.242188 425.386719 Z M 846.242188 337 " clip-rule="nonzero"/></clipPath><clipPath id="17e0b6fbc5"><path d="M 858.367188 425.023438 C 855.257812 425.023438 852.851562 424.519531 851.128906 423.5 C 849.40625 422.476562 848.1875 420.710938 847.472656 418.175781 C 846.757812 415.640625 846.40625 412.167969 846.40625 407.742188 L 846.40625 337.265625 L 863.691406 337.265625 L 863.691406 407.742188 C 863.691406 411.734375 864.238281 414.941406 865.355469 417.378906 C 866.476562 419.816406 869.011719 421.035156 873.003906 421.035156 L 874.335938 421.035156 L 874.335938 425.023438 Z M 858.367188 425.023438 " clip-rule="nonzero"/></clipPath><clipPath id="35bca5915e"><path d="M 0.28125 0.167969 L 28.445312 0.167969 L 28.445312 88.085938 L 0.28125 88.085938 Z M 0.28125 0.167969 " clip-rule="nonzero"/></clipPath><clipPath id="3d6188284a"><path d="M 12.367188 88.023438 C 9.257812 88.023438 6.851562 87.519531 5.128906 86.5 C 3.40625 85.476562 2.1875 83.710938 1.472656 81.175781 C 0.757812 78.640625 0.40625 75.167969 0.40625 70.742188 L 0.40625 0.265625 L 17.691406 0.265625 L 17.691406 70.742188 C 17.691406 74.734375 18.238281 77.941406 19.355469 80.378906 C 20.476562 82.816406 23.011719 84.035156 27.003906 84.035156 L 28.335938 84.035156 L 28.335938 88.023438 Z M 12.367188 88.023438 " clip-rule="nonzero"/></clipPath><clipPath id="2c5c49feff"><rect x="0" width="29" y="0" height="89"/></clipPath><clipPath id="685fe70eb9"><path d="M 878.230469 337 L 952.308594 337 L 952.308594 425.386719 L 878.230469 425.386719 Z M 878.230469 337 " clip-rule="nonzero"/></clipPath><clipPath id="c20f6da9b9"><path d="M 888.941406 425.023438 L 888.941406 354.550781 C 888.941406 350.558594 888.382812 347.351562 887.277344 344.914062 C 886.167969 342.476562 883.621094 341.257812 879.628906 341.257812 L 878.296875 341.257812 L 878.296875 337.265625 L 894.25 337.265625 C 897.359375 337.265625 899.769531 337.796875 901.492188 338.863281 C 903.214844 339.925781 904.433594 341.707031 905.148438 344.183594 C 905.859375 346.664062 906.210938 350.125 906.210938 354.5625 L 906.210938 419.042969 L 952.09375 419.042969 L 952.09375 425.023438 Z M 888.941406 425.023438 " clip-rule="nonzero"/></clipPath><clipPath id="99f71113af"><path d="M 0.230469 0.167969 L 74.164062 0.167969 L 74.164062 88.085938 L 0.230469 88.085938 Z M 0.230469 0.167969 " clip-rule="nonzero"/></clipPath><clipPath id="1dcdafbbd5"><path d="M 10.941406 88.023438 L 10.941406 17.550781 C 10.941406 13.558594 10.382812 10.351562 9.277344 7.914062 C 8.167969 5.476562 5.621094 4.257812 1.628906 4.257812 L 0.296875 4.257812 L 0.296875 0.265625 L 16.25 0.265625 C 19.359375 0.265625 21.769531 0.796875 23.492188 1.863281 C 25.214844 2.925781 26.433594 4.707031 27.148438 7.183594 C 27.859375 9.664062 28.210938 13.125 28.210938 17.5625 L 28.210938 82.042969 L 74.09375 82.042969 L 74.09375 88.023438 Z M 10.941406 88.023438 " clip-rule="nonzero"/></clipPath><clipPath id="4238b87808"><rect x="0" width="75" y="0" height="89"/></clipPath><clipPath id="87f5b26d94"><path d="M 917.191406 448.84375 L 949.5625 448.84375 L 949.5625 485.765625 L 917.191406 485.765625 Z M 917.191406 448.84375 " clip-rule="nonzero"/></clipPath><clipPath id="91e084dfbf"><path d="M 940.089844 473.550781 L 933.378906 454.808594 L 926.671875 473.550781 Z M 941.476562 477.484375 L 925.285156 477.484375 L 922.300781 485.746094 L 917.191406 485.746094 L 930.609375 448.84375 L 936.195312 448.84375 L 949.558594 485.746094 L 944.445312 485.746094 Z M 941.476562 477.484375 " clip-rule="nonzero"/></clipPath><clipPath id="5916104878"><path d="M 0.191406 0.84375 L 32.5625 0.84375 L 32.5625 37.765625 L 0.191406 37.765625 Z M 0.191406 0.84375 " clip-rule="nonzero"/></clipPath><clipPath id="f8160e9ac4"><path d="M 23.089844 25.550781 L 16.378906 6.808594 L 9.671875 25.550781 Z M 24.476562 29.484375 L 8.285156 29.484375 L 5.300781 37.746094 L 0.191406 37.746094 L 13.609375 0.84375 L 19.195312 0.84375 L 32.558594 37.746094 L 27.445312 37.746094 Z M 24.476562 29.484375 " clip-rule="nonzero"/></clipPath><clipPath id="0fc14d11f4"><rect x="0" width="33" y="0" height="38"/></clipPath><clipPath id="830629242a"><rect x="0" width="960" y="0" height="487"/></clipPath></defs><g clip-path="url(#7043556db1)"><g transform="matrix(1, 0, 0, 1, 0.000000000000000222, 26)"><g clip-path="url(#830629242a)"><g clip-path="url(#a5fd1caa4d)"><g transform="matrix(1, 0, 0, 1, 0.000000000000000222, 448)"><g clip-path="url(#ea4a3a12ac)"><g clip-path="url(#6a64abcb8c)"><path fill="#c79c05" d="M 0.914062 0.632812 L 26.042969 0.632812 L 26.042969 37.738281 L 0.914062 37.738281 Z M 0.914062 0.632812 " fill-opacity="1" fill-rule="nonzero"/></g></g></g></g><g clip-path="url(#246f18ce2e)"><g transform="matrix(1, 0, 0, 1, 54, 448)"><g clip-path="url(#a96d5ca33d)"><g clip-path="url(#af8fbbb59d)"><path fill="#c79c05" d="M 0.898438 0.632812 L 29.488281 0.632812 L 29.488281 37.710938 L 0.898438 37.710938 Z M 0.898438 0.632812 " fill-opacity="1" fill-rule="nonzero"/></g></g></g></g><g clip-path="url(#27f8a7556b)"><g transform="matrix(1, 0, 0, 1, 114, 448)"><g clip-path="url(#45f9251fcb)"><g clip-path="url(#0b4ca87d14)"><path fill="#c79c05" d="M 0.636719 0.578125 L 20.601562 0.578125 L 20.601562 37.777344 L 0.636719 37.777344 Z M 0.636719 0.578125 " fill-opacity="1" fill-rule="nonzero"/></g></g></g></g><g clip-path="url(#cb0e7ac234)"><g transform="matrix(1, 0, 0, 1, 201, 448)"><g clip-path="url(#222aff7ec9)"><g clip-path="url(#213aeaee47)"><path fill="#c79c05" d="M 0.949219 0.632812 L 21.929688 0.632812 L 21.929688 37.75 L 0.949219 37.75 Z M 0.949219 0.632812 " fill-opacity="1" fill-rule="nonzero"/></g></g></g></g><g clip-path="url(#6a5923d8c5)"><g transform="matrix(1, 0, 0, 1, 251, 448)"><g clip-path="url(#728f79d3d7)"><g clip-path="url(#efef085405)"><path fill="#c79c05" d="M 0.679688 0.578125 L 20.644531 0.578125 L 20.644531 37.777344 L 0.679688 37.777344 Z M 0.679688 0.578125 " fill-opacity="1" fill-rule="nonzero"/></g></g></g></g><g clip-path="url(#82a583de63)"><g clip-path="url(#b03a985d8c)"><g transform="matrix(1, 0, 0, 1, 299, 448)"><g clip-path="url(#5efd0e772b)"><g clip-path="url(#576d56c68e)"><g clip-path="url(#e390129c1a)"><path fill="#c79c05" d="M 0.542969 0.84375 L 32.910156 0.84375 L 32.910156 37.765625 L 0.542969 37.765625 Z M 0.542969 0.84375 " fill-opacity="1" fill-rule="nonzero"/></g></g></g></g></g></g><g clip-path="url(#84b7afb8aa)"><g clip-path="url(#278a800d26)"><g transform="matrix(1, 0, 0, 1, 7, 337)"><g clip-path="url(#466b2d0b4f)"><g clip-path="url(#bdeefbeb21)"><g clip-path="url(#a40a303c99)"><rect x="-356.44" width="1658.88" fill="#c79c05" y="-559.56" height="933.120002" fill-opacity="1"/></g></g></g></g></g></g><g clip-path="url(#f9331ff5c6)"><g clip-path="url(#4e9a16e304)"><g transform="matrix(1, 0, 0, 1, 114, 337)"><g clip-path="url(#54270f8380)"><g clip-path="url(#50f50589af)"><g clip-path="url(#f1aedbb70d)"><rect x="-463.44" width="1658.88" fill="#c79c05" y="-559.56" height="933.120002" fill-opacity="1"/></g></g></g></g></g></g><g clip-path="url(#842856fbe7)"><g clip-path="url(#df172f2bc9)"><g transform="matrix(1, 0, 0, 1, 199, 337)"><g clip-path="url(#33b2452fe6)"><g clip-path="url(#ac91a53af4)"><g clip-path="url(#9f533dfa18)"><rect x="-548.44" width="1658.88" fill="#c79c05" y="-559.56" height="933.120002" fill-opacity="1"/></g></g></g></g></g></g><g clip-path="url(#595cbec2db)"><g clip-path="url(#50fb3b1394)"><g transform="matrix(1, 0, 0, 1, 293, 337)"><g clip-path="url(#6eaa054527)"><g clip-path="url(#1c80a781ca)"><g clip-path="url(#90e8533100)"><rect x="-642.44" width="1658.88" fill="#c79c05" y="-559.56" height="933.120002" fill-opacity="1"/></g></g></g></g></g></g><g clip-path="url(#818bccc8af)"><g clip-path="url(#9d506a7527)"><g transform="matrix(1, 0, 0, 1, 359, 448)"><g clip-path="url(#cbd9b91a1a)"><g clip-path="url(#df0cb4e8db)"><g clip-path="url(#d2b41c5860)"><path fill="#c79c05" d="M 0.597656 0.152344 L 25.78125 0.152344 L 25.78125 38.125 L 0.597656 38.125 Z M 0.597656 0.152344 " fill-opacity="1" fill-rule="nonzero"/></g></g></g></g></g></g><g clip-path="url(#4d65023040)"><g clip-path="url(#2c56dd6816)"><g transform="matrix(1, 0, 0, 1, 399, 337)"><g clip-path="url(#3700f24603)"><g clip-path="url(#93be74d8f5)"><g clip-path="url(#886bbd81b0)"><path fill="#c79c05" d="M 0.753906 0.265625 L 28.675781 0.265625 L 28.675781 88.070312 L 0.753906 88.070312 Z M 0.753906 0.265625 " fill-opacity="1" fill-rule="nonzero"/></g></g></g></g></g></g><g clip-path="url(#f4c32f19d8)"><g transform="matrix(1, 0, 0, 1, 412, 448)"><g clip-path="url(#6c233b89cc)"><g clip-path="url(#4cce7b4e14)"><path fill="#c79c05" d="M 0.519531 0.632812 L 25.648438 0.632812 L 25.648438 37.738281 L 0.519531 37.738281 Z M 0.519531 0.632812 " fill-opacity="1" fill-rule="nonzero"/></g></g></g></g><g clip-path="url(#ec27d16aae)"><g clip-path="url(#c957478c71)"><g transform="matrix(1, 0, 0, 1, 501, 448)"><g clip-path="url(#aaaf710dc8)"><g clip-path="url(#8ce05e4634)"><g clip-path="url(#662250ce26)"><path fill="#c79c05" d="M 0.800781 0.207031 L 38.070312 0.207031 L 38.070312 38.058594 L 0.800781 38.058594 Z M 0.800781 0.207031 " fill-opacity="1" fill-rule="nonzero"/></g></g></g></g></g></g><g clip-path="url(#83839c752c)"><g transform="matrix(1, 0, 0, 1, 568, 448)"><g clip-path="url(#6a8449a875)"><g clip-path="url(#3a8a08b9eb)"><path fill="#c79c05" d="M 0.355469 0.632812 L 21.332031 0.632812 L 21.332031 37.75 L 0.355469 37.75 Z M 0.355469 0.632812 " fill-opacity="1" fill-rule="nonzero"/></g></g></g></g><g clip-path="url(#e163d0d002)"><g clip-path="url(#2d6ead134e)"><g transform="matrix(1, 0, 0, 1, 288, 7)"><g clip-path="url(#b28611fd45)"><g clip-path="url(#52f84352a4)"><g clip-path="url(#a7559ce726)"><rect x="-637.44" width="1658.88" fill="#c79c05" y="-229.56" height="933.120002" fill-opacity="1"/></g></g></g></g></g></g><g clip-path="url(#b209458c60)"><g clip-path="url(#dd67630774)"><g transform="matrix(1, 0, 0, 1, 455, 231)"><g clip-path="url(#6eab9a0f11)"><g clip-path="url(#f3e195ba03)"><g clip-path="url(#0af96b7082)"><rect x="-804.44" width="1658.88" fill="#c79c05" y="-453.56" height="933.120002" fill-opacity="1"/></g></g></g></g></g></g><g clip-path="url(#af9b7bf72a)"><g clip-path="url(#30c0808432)"><g transform="matrix(1, 0, 0, 1, 487, 231)"><g clip-path="url(#02b10e15f0)"><g clip-path="url(#5eac710971)"><g clip-path="url(#0fdbe94e20)"><rect x="-836.44" width="1658.88" fill="#c79c05" y="-453.56" height="933.120002" fill-opacity="1"/></g></g></g></g></g></g><g clip-path="url(#c0ec2311ef)"><g clip-path="url(#2a6099812b)"><g transform="matrix(1, 0, 0, 1, 503, 261)"><g clip-path="url(#81c4058f5a)"><g clip-path="url(#08e21101c9)"><g clip-path="url(#667ab0485f)"><rect x="-852.44" width="1658.88" fill="#c79c05" y="-483.56" height="933.120002" fill-opacity="1"/></g></g></g></g></g></g><g clip-path="url(#8c8915c507)"><g clip-path="url(#00b0eb1b65)"><g transform="matrix(1, 0, 0, 1, 471, 261)"><g clip-path="url(#db9ac2408b)"><g clip-path="url(#9458b4e4a8)"><g clip-path="url(#c282216195)"><rect x="-820.44" width="1658.88" fill="#c79c05" y="-483.56" height="933.120002" fill-opacity="1"/></g></g></g></g></g></g><g clip-path="url(#5186efdfdd)"><g clip-path="url(#9f0a6f0791)"><g transform="matrix(1, 0, 0, 1, 439, 261)"><g clip-path="url(#e921738a79)"><g clip-path="url(#397c0e56dc)"><g clip-path="url(#878a7084b3)"><rect x="-788.44" width="1658.88" fill="#c79c05" y="-483.56" height="933.120002" fill-opacity="1"/></g></g></g></g></g></g><g clip-path="url(#04230f7c80)"><g clip-path="url(#1c7f5ff08a)"><g transform="matrix(1, 0, 0, 1, 652, 448)"><g clip-path="url(#cd85838561)"><g clip-path="url(#6e1bae1059)"><g clip-path="url(#2048ba0d52)"><path fill="#c79c05" d="M 0.847656 0.84375 L 33.21875 0.84375 L 33.21875 37.765625 L 0.847656 37.765625 Z M 0.847656 0.84375 " fill-opacity="1" fill-rule="nonzero"/></g></g></g></g></g></g><g clip-path="url(#0e3559f56a)"><g clip-path="url(#49ce79ac79)"><g transform="matrix(1, 0, 0, 1, 713, 448)"><g clip-path="url(#4e7a09707b)"><g clip-path="url(#1f2860a0cf)"><g clip-path="url(#397a66bbc8)"><path fill="#c79c05" d="M 0.96875 0.632812 L 26.3125 0.632812 L 26.3125 37.753906 L 0.96875 37.753906 Z M 0.96875 0.632812 " fill-opacity="1" fill-rule="nonzero"/></g></g></g></g></g></g><g clip-path="url(#444f77c0f9)"><g clip-path="url(#d36da674f1)"><g transform="matrix(1, 0, 0, 1, 766, 448)"><g clip-path="url(#109f2b423f)"><g clip-path="url(#d8c748a04f)"><g clip-path="url(#e0ce48ff11)"><path fill="#c79c05" d="M 0.890625 0.84375 L 33.261719 0.84375 L 33.261719 37.765625 L 0.890625 37.765625 Z M 0.890625 0.84375 " fill-opacity="1" fill-rule="nonzero"/></g></g></g></g></g></g><g clip-path="url(#606b21c302)"><g clip-path="url(#f8c87a4fc9)"><g transform="matrix(1, 0, 0, 1, 828, 448)"><g clip-path="url(#f74bea9472)"><g clip-path="url(#cef3b472a5)"><g clip-path="url(#a61aab3055)"><path fill="#c79c05" d="M 0.0117188 0.632812 L 25.941406 0.632812 L 25.941406 37.699219 L 0.0117188 37.699219 Z M 0.0117188 0.632812 " fill-opacity="1" fill-rule="nonzero"/></g></g></g></g></g></g><g clip-path="url(#87bff80dd5)"><g transform="matrix(1, 0, 0, 1, 883, 448)"><g clip-path="url(#d700c2651d)"><g clip-path="url(#cec78f6f85)"><path fill="#c79c05" d="M 0.542969 0.628906 L 5.386719 0.628906 L 5.386719 37.738281 L 0.542969 37.738281 Z M 0.542969 0.628906 " fill-opacity="1" fill-rule="nonzero"/></g></g></g></g><g clip-path="url(#a17acf7f9b)"><g clip-path="url(#ace1eef776)"><g transform="matrix(1, 0, 0, 1, 579, 337)"><g clip-path="url(#df24bed771)"><g clip-path="url(#40fec32e5b)"><g clip-path="url(#13d6cce728)"><rect x="-928.44" width="1658.88" fill="#c79c05" y="-559.56" height="933.120002" fill-opacity="1"/></g></g></g></g></g></g><g clip-path="url(#d9d608a220)"><g clip-path="url(#44cde797fd)"><g transform="matrix(1, 0, 0, 1, 472, 337)"><g clip-path="url(#d44b122ebc)"><g clip-path="url(#cd8cfdeedd)"><g clip-path="url(#99753d15b7)"><rect x="-821.44" width="1658.88" fill="#c79c05" y="-559.56" height="933.120002" fill-opacity="1"/></g></g></g></g></g></g><g clip-path="url(#9397b32ce0)"><g clip-path="url(#8db20371a5)"><g transform="matrix(1, 0, 0, 1, 664, 337)"><g clip-path="url(#0a6ab61763)"><g clip-path="url(#06fc6a0f80)"><g clip-path="url(#2a487df44b)"><rect x="-1013.44" width="1658.88" fill="#c79c05" y="-559.56" height="933.120002" fill-opacity="1"/></g></g></g></g></g></g><g clip-path="url(#15a978c22e)"><g clip-path="url(#3dae4cc6c3)"><g transform="matrix(1, 0, 0, 1, 760, 337)"><g clip-path="url(#c0afe09109)"><g clip-path="url(#36c17cbe0c)"><g clip-path="url(#04738f35de)"><rect x="-1109.44" width="1658.88" fill="#c79c05" y="-559.56" height="933.120002" fill-opacity="1"/></g></g></g></g></g></g><g clip-path="url(#ed7e5aef65)"><g clip-path="url(#17e0b6fbc5)"><g transform="matrix(1, 0, 0, 1, 846, 337)"><g clip-path="url(#2c5c49feff)"><g clip-path="url(#35bca5915e)"><g clip-path="url(#3d6188284a)"><rect x="-1195.44" width="1658.88" fill="#c79c05" y="-559.56" height="933.120002" fill-opacity="1"/></g></g></g></g></g></g><g clip-path="url(#685fe70eb9)"><g clip-path="url(#c20f6da9b9)"><g transform="matrix(1, 0, 0, 1, 878, 337)"><g clip-path="url(#4238b87808)"><g clip-path="url(#99f71113af)"><g clip-path="url(#1dcdafbbd5)"><rect x="-1227.44" width="1658.88" fill="#c79c05" y="-559.56" height="933.120002" fill-opacity="1"/></g></g></g></g></g></g><g clip-path="url(#87f5b26d94)"><g clip-path="url(#91e084dfbf)"><g transform="matrix(1, 0, 0, 1, 917, 448)"><g clip-path="url(#0fc14d11f4)"><g clip-path="url(#5916104878)"><g clip-path="url(#f8160e9ac4)"><path fill="#c79c05" d="M 0.191406 0.84375 L 32.5625 0.84375 L 32.5625 37.765625 L 0.191406 37.765625 Z M 0.191406 0.84375 " fill-opacity="1" fill-rule="nonzero"/></g></g></g></g></g></g></g></g></g></svg>