<svg xmlns="http://www.w3.org/2000/svg" xmlns:xlink="http://www.w3.org/1999/xlink" width="1280" zoomAndPan="magnify" viewBox="0 0 960 540.000001" height="720" preserveAspectRatio="xMidYMid meet" version="1.0"><defs><clipPath id="98310eb486"><path d="M 0.886719 0 L 959 0 L 959 534 L 0.886719 534 Z M 0.886719 0 " clip-rule="nonzero"/></clipPath><clipPath id="74b0444adf"><path d="M 0.886719 495.363281 L 25.289062 495.363281 L 25.289062 499.296875 L 0.886719 499.296875 Z M 10.332031 499.296875 L 15.179688 499.296875 L 15.179688 532.476562 L 10.332031 532.476562 Z M 10.332031 499.296875 " clip-rule="nonzero"/></clipPath><clipPath id="4e5408ae32"><path d="M 0.886719 0.363281 L 25.289062 0.363281 L 25.289062 4.296875 L 0.886719 4.296875 Z M 10.332031 4.296875 L 15.179688 4.296875 L 15.179688 37.476562 L 10.332031 37.476562 Z M 10.332031 4.296875 " clip-rule="nonzero"/></clipPath><clipPath id="70ece6f295"><rect x="0" width="26" y="0" height="38"/></clipPath><clipPath id="ec945dcc59"><path d="M 77.890625 495.363281 L 82.734375 495.363281 L 82.734375 511.652344 L 77.890625 511.652344 Z M 54.148438 495.363281 L 58.996094 495.363281 L 58.996094 511.652344 L 54.148438 511.652344 Z M 54.148438 511.652344 L 82.734375 511.652344 L 82.734375 515.644531 L 54.148438 515.644531 Z M 54.148438 515.644531 L 58.996094 515.644531 L 58.996094 532.476562 L 54.148438 532.476562 Z M 77.890625 515.644531 L 82.734375 515.644531 L 82.734375 532.476562 L 77.890625 532.476562 Z M 77.890625 515.644531 " clip-rule="nonzero"/></clipPath><clipPath id="945cce5054"><path d="M 23.890625 0.363281 L 28.734375 0.363281 L 28.734375 16.652344 L 23.890625 16.652344 Z M 0.148438 0.363281 L 4.996094 0.363281 L 4.996094 16.652344 L 0.148438 16.652344 Z M 0.148438 16.652344 L 28.734375 16.652344 L 28.734375 20.644531 L 0.148438 20.644531 Z M 0.148438 20.644531 L 4.996094 20.644531 L 4.996094 37.476562 L 0.148438 37.476562 Z M 23.890625 20.644531 L 28.734375 20.644531 L 28.734375 37.476562 L 23.890625 37.476562 Z M 23.890625 20.644531 " clip-rule="nonzero"/></clipPath><clipPath id="e5910d29e7"><rect x="0" width="29" y="0" height="38"/></clipPath><clipPath id="cd16ac99d4"><path d="M 113.886719 495.308594 L 133.859375 495.308594 L 133.859375 499.300781 L 113.886719 499.300781 Z M 113.886719 499.300781 L 118.734375 499.300781 L 118.734375 511.710938 L 113.886719 511.710938 Z M 113.886719 511.710938 L 132.261719 511.710938 L 132.261719 515.703125 L 113.886719 515.703125 Z M 113.886719 515.703125 L 118.734375 515.703125 L 118.734375 528.472656 L 113.886719 528.472656 Z M 113.886719 528.472656 L 133.859375 528.472656 L 133.859375 532.464844 L 113.886719 532.464844 Z M 113.886719 528.472656 " clip-rule="nonzero"/></clipPath><clipPath id="94d2a17094"><path d="M 0.886719 0.308594 L 20.859375 0.308594 L 20.859375 4.300781 L 0.886719 4.300781 Z M 0.886719 4.300781 L 5.734375 4.300781 L 5.734375 16.710938 L 0.886719 16.710938 Z M 0.886719 16.710938 L 19.261719 16.710938 L 19.261719 20.703125 L 0.886719 20.703125 Z M 0.886719 20.703125 L 5.734375 20.703125 L 5.734375 33.472656 L 0.886719 33.472656 Z M 0.886719 33.472656 L 20.859375 33.472656 L 20.859375 37.464844 L 0.886719 37.464844 Z M 0.886719 33.472656 " clip-rule="nonzero"/></clipPath><clipPath id="51b4ac4804"><rect x="0" width="21" y="0" height="38"/></clipPath><clipPath id="09368d2cb9"><path d="M 201.203125 495.363281 L 222.183594 495.363281 L 222.183594 499.296875 L 201.203125 499.296875 Z M 201.203125 499.296875 L 206.046875 499.296875 L 206.046875 511.804688 L 201.203125 511.804688 Z M 201.203125 511.804688 L 219.144531 511.804688 L 219.144531 515.742188 L 201.203125 515.742188 Z M 201.203125 515.742188 L 206.046875 515.742188 L 206.046875 532.476562 L 201.203125 532.476562 Z M 201.203125 515.742188 " clip-rule="nonzero"/></clipPath><clipPath id="7f7314a2a9"><path d="M 0.203125 0.363281 L 21.183594 0.363281 L 21.183594 4.296875 L 0.203125 4.296875 Z M 0.203125 4.296875 L 5.046875 4.296875 L 5.046875 16.804688 L 0.203125 16.804688 Z M 0.203125 16.804688 L 18.144531 16.804688 L 18.144531 20.742188 L 0.203125 20.742188 Z M 0.203125 20.742188 L 5.046875 20.742188 L 5.046875 37.476562 L 0.203125 37.476562 Z M 0.203125 20.742188 " clip-rule="nonzero"/></clipPath><clipPath id="1fcf82eb5e"><rect x="0" width="22" y="0" height="38"/></clipPath><clipPath id="e500571ab1"><path d="M 250.929688 495.308594 L 270.902344 495.308594 L 270.902344 499.300781 L 250.929688 499.300781 Z M 250.929688 499.300781 L 255.777344 499.300781 L 255.777344 511.710938 L 250.929688 511.710938 Z M 250.929688 511.710938 L 269.292969 511.710938 L 269.292969 515.703125 L 250.929688 515.703125 Z M 250.929688 515.703125 L 255.777344 515.703125 L 255.777344 528.472656 L 250.929688 528.472656 Z M 250.929688 528.472656 L 270.902344 528.472656 L 270.902344 532.464844 L 250.929688 532.464844 Z M 250.929688 528.472656 " clip-rule="nonzero"/></clipPath><clipPath id="bfc0c5713e"><path d="M 0.929688 0.308594 L 20.902344 0.308594 L 20.902344 4.300781 L 0.929688 4.300781 Z M 0.929688 4.300781 L 5.777344 4.300781 L 5.777344 16.710938 L 0.929688 16.710938 Z M 0.929688 16.710938 L 19.292969 16.710938 L 19.292969 20.703125 L 0.929688 20.703125 Z M 0.929688 20.703125 L 5.777344 20.703125 L 5.777344 33.472656 L 0.929688 33.472656 Z M 0.929688 33.472656 L 20.902344 33.472656 L 20.902344 37.464844 L 0.929688 37.464844 Z M 0.929688 33.472656 " clip-rule="nonzero"/></clipPath><clipPath id="e2254b57e6"><rect x="0" width="21" y="0" height="38"/></clipPath><clipPath id="264fc8b509"><path d="M 298.792969 495.574219 L 331.164062 495.574219 L 331.164062 532.496094 L 298.792969 532.496094 Z M 298.792969 495.574219 " clip-rule="nonzero"/></clipPath><clipPath id="afc2d8edbf"><path d="M 321.691406 520.28125 L 314.984375 501.539062 L 308.273438 520.28125 Z M 323.078125 524.214844 L 306.886719 524.214844 L 303.90625 532.480469 L 298.792969 532.480469 L 312.210938 495.574219 L 317.796875 495.574219 L 331.160156 532.480469 L 326.046875 532.480469 Z M 323.078125 524.214844 " clip-rule="nonzero"/></clipPath><clipPath id="5984cd5c5a"><path d="M 0.792969 0.574219 L 33.164062 0.574219 L 33.164062 37.496094 L 0.792969 37.496094 Z M 0.792969 0.574219 " clip-rule="nonzero"/></clipPath><clipPath id="88297867fb"><path d="M 23.691406 25.28125 L 16.984375 6.539062 L 10.273438 25.28125 Z M 25.078125 29.214844 L 8.886719 29.214844 L 5.90625 37.480469 L 0.792969 37.480469 L 14.210938 0.574219 L 19.796875 0.574219 L 33.160156 37.480469 L 28.046875 37.480469 Z M 25.078125 29.214844 " clip-rule="nonzero"/></clipPath><clipPath id="281c70ae0c"><rect x="0" width="34" y="0" height="38"/></clipPath><clipPath id="9adc7d0891"><path d="M 7 383.730469 L 109.992188 383.730469 L 109.992188 478 L 7 478 Z M 7 383.730469 " clip-rule="nonzero"/></clipPath><clipPath id="119336095f"><path d="M 109.929688 477.738281 C 103.542969 477.738281 98.359375 476.742188 94.367188 474.738281 C 90.375 472.738281 87.476562 469.640625 85.65625 465.425781 C 83.835938 461.210938 82.925781 455.789062 82.925781 449.136719 L 82.925781 402.078125 L 53.808594 471.757812 L 49.425781 471.757812 L 13.792969 399.417969 L 13.792969 471.757812 L 7.140625 471.757812 L 7.140625 383.996094 L 23.359375 383.996094 L 55.542969 449.292969 L 82.800781 383.996094 L 100.222656 383.996094 L 100.222656 449.152344 C 100.222656 457.21875 100.910156 463.269531 102.28125 467.304688 C 103.652344 471.335938 106.203125 473.703125 109.929688 474.417969 Z M 109.929688 477.738281 " clip-rule="nonzero"/></clipPath><clipPath id="d793d4039f"><path d="M 0.117188 0.769531 L 102.992188 0.769531 L 102.992188 94.914062 L 0.117188 94.914062 Z M 0.117188 0.769531 " clip-rule="nonzero"/></clipPath><clipPath id="91dd95a34b"><path d="M 102.929688 94.738281 C 96.542969 94.738281 91.359375 93.742188 87.367188 91.738281 C 83.375 89.738281 80.476562 86.640625 78.65625 82.425781 C 76.835938 78.210938 75.925781 72.789062 75.925781 66.136719 L 75.925781 19.078125 L 46.808594 88.757812 L 42.425781 88.757812 L 6.792969 16.417969 L 6.792969 88.757812 L 0.140625 88.757812 L 0.140625 0.996094 L 16.359375 0.996094 L 48.542969 66.292969 L 75.800781 0.996094 L 93.222656 0.996094 L 93.222656 66.152344 C 93.222656 74.21875 93.910156 80.269531 95.28125 84.304688 C 96.652344 88.335938 99.203125 90.703125 102.929688 91.417969 Z M 102.929688 94.738281 " clip-rule="nonzero"/></clipPath><clipPath id="4524d896d1"><rect x="0" width="103" y="0" height="95"/></clipPath><clipPath id="117a1d817c"><path d="M 113.359375 383.730469 L 202.59375 383.730469 L 202.59375 472.539062 L 113.359375 472.539062 Z M 113.359375 383.730469 " clip-rule="nonzero"/></clipPath><clipPath id="4b26b504a2"><path d="M 194.496094 464.320312 C 192.183594 462.007812 190.238281 458.914062 188.640625 455.007812 L 158.863281 383.996094 L 152.882812 383.996094 L 113.652344 471.757812 L 120.574219 471.757812 L 134.269531 441.574219 L 149.691406 406.867188 L 164.199219 441.308594 C 164.4375 441.699219 169.902344 455.007812 169.902344 455.007812 C 172.03125 460.0625 174.578125 463.828125 177.546875 466.308594 C 180.515625 468.789062 183.613281 470.410156 186.863281 471.15625 C 190.109375 471.898438 193.179688 472.289062 196.105469 472.289062 C 197.085938 472.289062 198.207031 472.21875 199.496094 472.09375 C 200.78125 471.964844 201.777344 471.796875 202.492188 471.628906 L 202.492188 468.296875 C 199.480469 467.945312 196.820312 466.617188 194.507812 464.304688 " clip-rule="nonzero"/></clipPath><clipPath id="2ea1d8d524"><path d="M 0.480469 0.769531 L 89.59375 0.769531 L 89.59375 89.40625 L 0.480469 89.40625 Z M 0.480469 0.769531 " clip-rule="nonzero"/></clipPath><clipPath id="457b8dc749"><path d="M 81.496094 81.320312 C 79.183594 79.007812 77.238281 75.914062 75.640625 72.007812 L 45.863281 0.996094 L 39.882812 0.996094 L 0.652344 88.757812 L 7.574219 88.757812 L 21.269531 58.574219 L 36.691406 23.867188 L 51.199219 58.308594 C 51.4375 58.699219 56.902344 72.007812 56.902344 72.007812 C 59.03125 77.0625 61.578125 80.828125 64.546875 83.308594 C 67.515625 85.789062 70.613281 87.410156 73.863281 88.15625 C 77.109375 88.898438 80.179688 89.289062 83.105469 89.289062 C 84.085938 89.289062 85.207031 89.21875 86.496094 89.09375 C 87.78125 88.964844 88.777344 88.796875 89.492188 88.628906 L 89.492188 85.296875 C 86.480469 84.945312 83.820312 83.617188 81.507812 81.304688 " clip-rule="nonzero"/></clipPath><clipPath id="4c03b2e37d"><rect x="0" width="90" y="0" height="90"/></clipPath><clipPath id="2e04c53777"><path d="M 199 383.730469 L 280.878906 383.730469 L 280.878906 472.539062 L 199 472.539062 Z M 199 383.730469 " clip-rule="nonzero"/></clipPath><clipPath id="e2d7a850f1"><path d="M 274.675781 472.164062 L 218.304688 405.945312 L 218.304688 471.769531 L 211.652344 471.769531 L 211.652344 399.949219 C 211.652344 396.589844 210.824219 393.746094 209.1875 391.433594 C 207.546875 389.125 204.382812 387.976562 199.675781 387.976562 L 199.019531 387.976562 L 199.019531 383.996094 L 208.332031 383.996094 C 213.386719 383.996094 217.476562 384.65625 220.628906 385.984375 C 223.78125 387.316406 226.371094 389.304688 228.402344 391.964844 L 274.144531 445.160156 L 274.144531 383.996094 L 280.796875 383.996094 L 280.796875 472.164062 Z M 274.675781 472.164062 " clip-rule="nonzero"/></clipPath><clipPath id="a8bdc93cdd"><path d="M 0 0.769531 L 81.878906 0.769531 L 81.878906 89.164062 L 0 89.164062 Z M 0 0.769531 " clip-rule="nonzero"/></clipPath><clipPath id="363a9a2fdb"><path d="M 75.675781 89.164062 L 19.304688 22.945312 L 19.304688 88.769531 L 12.652344 88.769531 L 12.652344 16.949219 C 12.652344 13.589844 11.824219 10.746094 10.1875 8.433594 C 8.546875 6.125 5.382812 4.976562 0.675781 4.976562 L 0.0195312 4.976562 L 0.0195312 0.996094 L 9.332031 0.996094 C 14.386719 0.996094 18.476562 1.65625 21.628906 2.984375 C 24.78125 4.316406 27.371094 6.304688 29.402344 8.964844 L 75.144531 62.160156 L 75.144531 0.996094 L 81.796875 0.996094 L 81.796875 89.164062 Z M 75.675781 89.164062 " clip-rule="nonzero"/></clipPath><clipPath id="eaafc07834"><rect x="0" width="82" y="0" height="90"/></clipPath><clipPath id="6379bf628d"><path d="M 292.246094 383.730469 L 384 383.730469 L 384 472 L 292.246094 472 Z M 292.246094 383.730469 " clip-rule="nonzero"/></clipPath><clipPath id="0a7ae78d5d"><path d="M 331.847656 466.433594 C 338.050781 466.433594 343.554688 464.878906 348.332031 461.785156 C 353.109375 458.6875 356.890625 454.25 359.636719 448.492188 C 362.378906 442.738281 363.753906 435.859375 363.753906 427.878906 C 363.753906 420.074219 362.394531 413.296875 359.691406 407.527344 C 356.988281 401.757812 353.21875 397.289062 348.386719 394.09375 C 343.554688 390.902344 337.953125 389.304688 331.566406 389.304688 C 329.621094 389.304688 327.925781 389.347656 326.511719 389.429688 C 325.097656 389.515625 323.09375 389.78125 320.53125 390.230469 L 320.53125 465.511719 C 322.476562 465.859375 324.003906 466.113281 325.125 466.238281 C 326.246094 466.363281 327.269531 466.433594 328.25 466.433594 Z M 303.261719 471.757812 L 303.261719 401.28125 C 303.261719 397.289062 302.703125 394.082031 301.59375 391.644531 C 300.488281 389.207031 297.941406 387.988281 293.949219 387.988281 L 292.617188 387.988281 L 292.617188 383.996094 L 328.78125 383.996094 C 347.042969 383.996094 360.753906 387.847656 369.929688 395.566406 C 379.101562 403.28125 383.695312 413.871094 383.695312 427.34375 C 383.695312 436.125 381.722656 443.828125 377.773438 450.480469 C 373.824219 457.132812 368.039062 462.34375 360.417969 466.113281 C 352.800781 469.878906 343.402344 471.769531 332.226562 471.769531 Z M 303.261719 471.757812 " clip-rule="nonzero"/></clipPath><clipPath id="e2bf062a10"><path d="M 0.425781 0.769531 L 91.699219 0.769531 L 91.699219 88.925781 L 0.425781 88.925781 Z M 0.425781 0.769531 " clip-rule="nonzero"/></clipPath><clipPath id="6244274587"><path d="M 39.847656 83.433594 C 46.050781 83.433594 51.554688 81.878906 56.332031 78.785156 C 61.109375 75.6875 64.890625 71.25 67.636719 65.492188 C 70.378906 59.738281 71.753906 52.859375 71.753906 44.878906 C 71.753906 37.074219 70.394531 30.296875 67.691406 24.527344 C 64.988281 18.757812 61.21875 14.289062 56.386719 11.09375 C 51.554688 7.902344 45.953125 6.304688 39.566406 6.304688 C 37.621094 6.304688 35.925781 6.347656 34.511719 6.429688 C 33.097656 6.515625 31.09375 6.78125 28.53125 7.230469 L 28.53125 82.511719 C 30.476562 82.859375 32.003906 83.113281 33.125 83.238281 C 34.246094 83.363281 35.269531 83.433594 36.25 83.433594 Z M 11.261719 88.757812 L 11.261719 18.28125 C 11.261719 14.289062 10.703125 11.082031 9.59375 8.644531 C 8.488281 6.207031 5.941406 4.988281 1.949219 4.988281 L 0.617188 4.988281 L 0.617188 0.996094 L 36.78125 0.996094 C 55.042969 0.996094 68.753906 4.847656 77.929688 12.566406 C 87.101562 20.28125 91.695312 30.871094 91.695312 44.34375 C 91.695312 53.125 89.722656 60.828125 85.773438 67.480469 C 81.824219 74.132812 76.039062 79.34375 68.417969 83.113281 C 60.800781 86.878906 51.402344 88.769531 40.226562 88.769531 Z M 11.261719 88.757812 " clip-rule="nonzero"/></clipPath><clipPath id="dc6e0d4716"><rect x="0" width="92" y="0" height="89"/></clipPath><clipPath id="78eaf3c6b9"><path d="M 358.847656 494.882812 L 384.132812 494.882812 L 384.132812 532.855469 L 358.847656 532.855469 Z M 358.847656 494.882812 " clip-rule="nonzero"/></clipPath><clipPath id="f337327b7e"><path d="M 365.109375 531.535156 C 363.175781 530.667969 361.652344 529.460938 360.558594 527.921875 C 359.464844 526.382812 358.890625 524.589844 358.847656 522.570312 L 364.015625 522.570312 C 364.199219 524.308594 364.914062 525.777344 366.175781 526.957031 C 367.433594 528.132812 369.269531 528.734375 371.679688 528.734375 C 373.988281 528.734375 375.808594 528.160156 377.140625 526.996094 C 378.472656 525.835938 379.144531 524.363281 379.144531 522.558594 C 379.144531 521.128906 378.75 519.980469 377.96875 519.097656 C 377.183594 518.214844 376.203125 517.53125 375.039062 517.066406 C 373.878906 516.605469 372.292969 516.113281 370.304688 515.570312 C 367.855469 514.925781 365.894531 514.292969 364.421875 513.648438 C 362.953125 513.003906 361.691406 512.011719 360.640625 510.640625 C 359.589844 509.265625 359.058594 507.472656 359.058594 505.164062 C 359.058594 503.144531 359.578125 501.351562 360.601562 499.785156 C 361.621094 498.214844 363.078125 497.011719 364.941406 496.15625 C 366.804688 495.300781 368.949219 494.882812 371.355469 494.882812 C 374.828125 494.882812 377.6875 495.75 379.898438 497.488281 C 382.113281 499.222656 383.375 501.535156 383.652344 504.40625 L 378.332031 504.40625 C 378.148438 502.992188 377.40625 501.730469 376.089844 500.652344 C 374.773438 499.574219 373.050781 499.027344 370.878906 499.027344 C 368.847656 499.027344 367.210938 499.558594 365.921875 500.597656 C 364.632812 501.632812 364.015625 503.117188 364.015625 504.996094 C 364.015625 506.339844 364.394531 507.445312 365.164062 508.300781 C 365.9375 509.152344 366.875 509.796875 367.996094 510.246094 C 369.117188 510.695312 370.683594 511.199219 372.699219 511.757812 C 375.152344 512.429688 377.125 513.105469 378.613281 513.761719 C 380.097656 514.421875 381.382812 515.429688 382.449219 516.800781 C 383.511719 518.175781 384.046875 520.023438 384.046875 522.363281 C 384.046875 524.167969 383.570312 525.878906 382.601562 527.472656 C 381.636719 529.070312 380.222656 530.371094 378.34375 531.367188 C 376.46875 532.363281 374.242188 532.851562 371.691406 532.851562 C 369.242188 532.851562 367.058594 532.417969 365.125 531.550781 " clip-rule="nonzero"/></clipPath><clipPath id="07550f1886"><path d="M 0.847656 0.882812 L 26.132812 0.882812 L 26.132812 38.855469 L 0.847656 38.855469 Z M 0.847656 0.882812 " clip-rule="nonzero"/></clipPath><clipPath id="bba1c069c7"><path d="M 7.109375 37.535156 C 5.175781 36.667969 3.652344 35.460938 2.558594 33.921875 C 1.464844 32.382812 0.890625 30.589844 0.847656 28.570312 L 6.015625 28.570312 C 6.199219 30.308594 6.914062 31.777344 8.175781 32.957031 C 9.433594 34.132812 11.269531 34.734375 13.679688 34.734375 C 15.988281 34.734375 17.808594 34.160156 19.140625 32.996094 C 20.472656 31.835938 21.144531 30.363281 21.144531 28.558594 C 21.144531 27.128906 20.75 25.980469 19.96875 25.097656 C 19.183594 24.214844 18.203125 23.53125 17.039062 23.066406 C 15.878906 22.605469 14.292969 22.113281 12.304688 21.570312 C 9.855469 20.925781 7.894531 20.292969 6.421875 19.648438 C 4.953125 19.003906 3.691406 18.011719 2.640625 16.640625 C 1.589844 15.265625 1.058594 13.472656 1.058594 11.164062 C 1.058594 9.144531 1.578125 7.351562 2.601562 5.785156 C 3.621094 4.214844 5.078125 3.011719 6.941406 2.15625 C 8.804688 1.300781 10.949219 0.882812 13.355469 0.882812 C 16.828125 0.882812 19.6875 1.75 21.898438 3.488281 C 24.113281 5.222656 25.375 7.535156 25.652344 10.40625 L 20.332031 10.40625 C 20.148438 8.992188 19.40625 7.730469 18.089844 6.652344 C 16.773438 5.574219 15.050781 5.027344 12.878906 5.027344 C 10.847656 5.027344 9.210938 5.558594 7.921875 6.597656 C 6.632812 7.632812 6.015625 9.117188 6.015625 10.996094 C 6.015625 12.339844 6.394531 13.445312 7.164062 14.300781 C 7.9375 15.152344 8.875 15.796875 9.996094 16.246094 C 11.117188 16.695312 12.683594 17.199219 14.699219 17.757812 C 17.152344 18.429688 19.125 19.105469 20.613281 19.761719 C 22.097656 20.421875 23.382812 21.429688 24.449219 22.800781 C 25.511719 24.175781 26.046875 26.023438 26.046875 28.363281 C 26.046875 30.167969 25.570312 31.878906 24.601562 33.472656 C 23.636719 35.070312 22.222656 36.371094 20.34375 37.367188 C 18.46875 38.363281 16.242188 38.851562 13.691406 38.851562 C 11.242188 38.851562 9.058594 38.417969 7.125 37.550781 " clip-rule="nonzero"/></clipPath><clipPath id="dc3ac2d854"><rect x="0" width="27" y="0" height="39"/></clipPath><clipPath id="62562f1ece"><path d="M 399.003906 383.996094 L 427 383.996094 L 427 471.800781 L 399.003906 471.800781 Z M 399.003906 383.996094 " clip-rule="nonzero"/></clipPath><clipPath id="3d5af62672"><path d="M 410.964844 471.757812 C 407.855469 471.757812 405.445312 471.253906 403.722656 470.230469 C 402 469.207031 400.769531 467.441406 400.066406 464.910156 C 399.367188 462.375 399.003906 458.898438 399.003906 454.472656 L 399.003906 383.996094 L 416.285156 383.996094 L 416.285156 454.472656 C 416.285156 458.464844 416.832031 461.671875 417.953125 464.109375 C 419.074219 466.546875 421.609375 467.765625 425.601562 467.765625 L 426.929688 467.765625 L 426.929688 471.757812 Z M 410.964844 471.757812 " clip-rule="nonzero"/></clipPath><clipPath id="570b359c77"><path d="M 0.00390625 0.996094 L 28 0.996094 L 28 88.800781 L 0.00390625 88.800781 Z M 0.00390625 0.996094 " clip-rule="nonzero"/></clipPath><clipPath id="206aacca4c"><path d="M 11.964844 88.757812 C 8.855469 88.757812 6.445312 88.253906 4.722656 87.230469 C 3 86.207031 1.769531 84.441406 1.066406 81.910156 C 0.367188 79.375 0.00390625 75.898438 0.00390625 71.472656 L 0.00390625 0.996094 L 17.285156 0.996094 L 17.285156 71.472656 C 17.285156 75.464844 17.832031 78.671875 18.953125 81.109375 C 20.074219 83.546875 22.609375 84.765625 26.601562 84.765625 L 27.929688 84.765625 L 27.929688 88.757812 Z M 11.964844 88.757812 " clip-rule="nonzero"/></clipPath><clipPath id="71e36a2498"><rect x="0" width="28" y="0" height="89"/></clipPath><clipPath id="f1c26e5270"><path d="M 411.769531 495.363281 L 436.894531 495.363281 L 436.894531 499.296875 L 411.769531 499.296875 Z M 421.9375 499.296875 L 426.785156 499.296875 L 426.785156 532.476562 L 421.9375 532.476562 Z M 421.9375 499.296875 " clip-rule="nonzero"/></clipPath><clipPath id="83dd1fc367"><path d="M 0.769531 0.363281 L 25.894531 0.363281 L 25.894531 4.296875 L 0.769531 4.296875 Z M 10.9375 4.296875 L 15.785156 4.296875 L 15.785156 37.476562 L 10.9375 37.476562 Z M 10.9375 4.296875 " clip-rule="nonzero"/></clipPath><clipPath id="b0e2e524d4"><rect x="0" width="26" y="0" height="38"/></clipPath><clipPath id="9db69c4b3a"><path d="M 501.054688 494.9375 L 538.46875 494.9375 L 538.46875 532.933594 L 501.054688 532.933594 Z M 501.054688 494.9375 " clip-rule="nonzero"/></clipPath><clipPath id="563c27f7a3"><path d="M 526.683594 526.828125 C 528.757812 525.625 530.394531 523.898438 531.585938 521.660156 C 532.777344 519.417969 533.363281 516.828125 533.363281 513.886719 C 533.363281 510.902344 532.777344 508.296875 531.585938 506.085938 C 530.394531 503.871094 528.769531 502.148438 526.710938 500.945312 C 524.652344 499.742188 522.3125 499.140625 519.695312 499.140625 C 517.074219 499.140625 514.722656 499.742188 512.664062 500.945312 C 510.605469 502.148438 508.980469 503.871094 507.789062 506.085938 C 506.597656 508.296875 506.011719 510.902344 506.011719 513.886719 C 506.011719 516.828125 506.597656 519.417969 507.789062 521.660156 C 508.980469 523.898438 510.605469 525.625 512.691406 526.828125 C 514.777344 528.03125 517.105469 528.632812 519.695312 528.632812 C 522.285156 528.632812 524.625 528.03125 526.699219 526.828125 M 510.269531 530.425781 C 507.425781 528.816406 505.183594 526.5625 503.53125 523.664062 C 501.878906 520.761719 501.054688 517.515625 501.054688 513.886719 C 501.054688 510.257812 501.878906 507.011719 503.53125 504.125 C 505.183594 501.238281 507.425781 498.96875 510.269531 497.359375 C 513.113281 495.75 516.25 494.9375 519.695312 494.9375 C 523.167969 494.9375 526.332031 495.75 529.175781 497.359375 C 532.019531 498.96875 534.246094 501.226562 535.886719 504.097656 C 537.523438 506.96875 538.335938 510.246094 538.335938 513.902344 C 538.335938 517.554688 537.523438 520.820312 535.886719 523.691406 C 534.246094 526.5625 532.019531 528.816406 529.175781 530.425781 C 526.332031 532.039062 523.183594 532.851562 519.695312 532.851562 C 516.25 532.851562 513.113281 532.039062 510.269531 530.425781 " clip-rule="nonzero"/></clipPath><clipPath id="8ca5fb63b4"><path d="M 0.0546875 0.9375 L 37.453125 0.9375 L 37.453125 38.933594 L 0.0546875 38.933594 Z M 0.0546875 0.9375 " clip-rule="nonzero"/></clipPath><clipPath id="76e17b9104"><path d="M 25.683594 32.828125 C 27.757812 31.625 29.394531 29.898438 30.585938 27.660156 C 31.777344 25.417969 32.363281 22.828125 32.363281 19.886719 C 32.363281 16.902344 31.777344 14.296875 30.585938 12.085938 C 29.394531 9.871094 27.769531 8.148438 25.710938 6.945312 C 23.652344 5.742188 21.3125 5.140625 18.695312 5.140625 C 16.074219 5.140625 13.722656 5.742188 11.664062 6.945312 C 9.605469 8.148438 7.980469 9.871094 6.789062 12.085938 C 5.597656 14.296875 5.011719 16.902344 5.011719 19.886719 C 5.011719 22.828125 5.597656 25.417969 6.789062 27.660156 C 7.980469 29.898438 9.605469 31.625 11.691406 32.828125 C 13.777344 34.03125 16.105469 34.632812 18.695312 34.632812 C 21.285156 34.632812 23.625 34.03125 25.699219 32.828125 M 9.269531 36.425781 C 6.425781 34.816406 4.183594 32.5625 2.53125 29.664062 C 0.878906 26.761719 0.0546875 23.515625 0.0546875 19.886719 C 0.0546875 16.257812 0.878906 13.011719 2.53125 10.125 C 4.183594 7.238281 6.425781 4.96875 9.269531 3.359375 C 12.113281 1.75 15.25 0.9375 18.695312 0.9375 C 22.167969 0.9375 25.332031 1.75 28.175781 3.359375 C 31.019531 4.96875 33.246094 7.226562 34.886719 10.097656 C 36.523438 12.96875 37.335938 16.246094 37.335938 19.902344 C 37.335938 23.554688 36.523438 26.820312 34.886719 29.691406 C 33.246094 32.5625 31.019531 34.816406 28.175781 36.425781 C 25.332031 38.039062 22.183594 38.851562 18.695312 38.851562 C 15.25 38.851562 12.113281 38.039062 9.269531 36.425781 " clip-rule="nonzero"/></clipPath><clipPath id="af4eb942b2"><rect x="0" width="38" y="0" height="39"/></clipPath><clipPath id="fd22e89d1a"><path d="M 567.605469 495.363281 L 588.585938 495.363281 L 588.585938 499.296875 L 567.605469 499.296875 Z M 567.605469 499.296875 L 572.453125 499.296875 L 572.453125 511.804688 L 567.605469 511.804688 Z M 567.605469 511.804688 L 585.546875 511.804688 L 585.546875 515.742188 L 567.605469 515.742188 Z M 567.605469 515.742188 L 572.453125 515.742188 L 572.453125 532.476562 L 567.605469 532.476562 Z M 567.605469 515.742188 " clip-rule="nonzero"/></clipPath><clipPath id="5cd114cecd"><path d="M 0.605469 0.363281 L 21.585938 0.363281 L 21.585938 4.296875 L 0.605469 4.296875 Z M 0.605469 4.296875 L 5.453125 4.296875 L 5.453125 16.804688 L 0.605469 16.804688 Z M 0.605469 16.804688 L 18.546875 16.804688 L 18.546875 20.742188 L 0.605469 20.742188 Z M 0.605469 20.742188 L 5.453125 20.742188 L 5.453125 37.476562 L 0.605469 37.476562 Z M 0.605469 20.742188 " clip-rule="nonzero"/></clipPath><clipPath id="4926f9f44a"><rect x="0" width="22" y="0" height="38"/></clipPath><clipPath id="54dec1c62b"><path d="M 246.628906 10 L 755.628906 10 L 755.628906 375 L 246.628906 375 Z M 246.628906 10 " clip-rule="nonzero"/></clipPath><clipPath id="d14d54d4d2"><path d="M 688.070312 227.332031 C 685.816406 227.890625 683.378906 227.757812 680.863281 227.273438 C 680.601562 227.21875 680.34375 227.164062 680.027344 227.105469 C 679.207031 226.941406 678.367188 226.734375 677.546875 226.511719 C 667.734375 223.214844 669.667969 211.199219 670.097656 209.097656 C 671.195312 204.066406 672.667969 199.355469 675.59375 195.851562 C 680.527344 189.929688 687.570312 185.796875 694.664062 181.679688 C 697.085938 180.746094 700.179688 178.773438 703.289062 176.5 C 703.660156 176.277344 704.015625 176.035156 704.386719 175.792969 C 704.371094 175.757812 704.371094 175.738281 704.351562 175.71875 C 710.777344 170.894531 716.941406 165.195312 716.941406 165.195312 L 700.105469 171.695312 C 642.457031 192.070312 590.378906 177.691406 540.460938 149.960938 C 540.460938 149.511719 540.445312 149.066406 540.445312 148.636719 C 555.828125 138.914062 588.089844 135.542969 588.089844 135.542969 C 578.8125 130.273438 567.320312 127.664062 559.832031 126.453125 C 559.796875 126.453125 559.757812 126.433594 559.722656 126.433594 C 559.683594 126.433594 559.664062 126.433594 559.648438 126.417969 C 555.046875 125.671875 551.992188 125.464844 551.992188 125.464844 L 551.972656 125.484375 C 518.578125 122.1875 487.398438 130.8125 457.242188 145.710938 C 436.71875 155.808594 415.96875 165.679688 394.640625 173.96875 C 373.519531 182.199219 352.027344 182.441406 330.996094 173.835938 L 330.996094 173.019531 L 324.496094 170.96875 C 320.941406 169.480469 317.140625 168.511719 313.359375 167.46875 L 294.753906 161.636719 C 298.253906 164.542969 303.207031 169.089844 307.769531 173.335938 C 309.894531 175.363281 312.035156 177.375 314.179688 179.386719 C 317.195312 182.257812 319.261719 184.269531 319.355469 184.359375 C 321.964844 186.929688 324.480469 189.578125 326.808594 192.390625 C 331.519531 198.070312 336.472656 204.832031 337.757812 211.777344 C 339.492188 221.203125 333.585938 225.449219 323.902344 222.097656 C 321.554688 221.277344 319.28125 220.253906 317.066406 219.136719 C 295.402344 208.425781 273.425781 196.078125 271.878906 169.3125 C 270.371094 143.550781 289.835938 128.578125 309.449219 115.558594 C 313.5625 112.820312 317.960938 110.4375 322.394531 108.21875 C 345.394531 96.765625 350.21875 96.523438 352.640625 115.59375 C 352.640625 115.632812 350.742188 146.53125 375.121094 156.832031 C 375.121094 156.832031 374.527344 135.171875 377.152344 118.425781 C 382.050781 93.617188 393.226562 72.308594 415.203125 57.164062 C 444.390625 37.070312 477.9375 30.492188 512.5625 31.109375 C 562.253906 31.984375 605.671875 45.804688 629.808594 94.808594 C 636.328125 108.015625 649.011719 108.292969 661.996094 108.367188 C 689.898438 108.535156 715.246094 114.085938 728.0625 143.460938 C 743.222656 178.25 724.914062 217.980469 688.070312 227.332031 M 702.246094 96.652344 C 664.117188 88.570312 639.199219 67.613281 612.132812 42.433594 C 578.160156 10.84375 532.210938 7.269531 487.304688 11.515625 C 441.820312 15.796875 399.671875 28.464844 369.871094 67.371094 C 365.679688 72.847656 356.199219 75.644531 348.691406 76.964844 C 319.039062 82.21875 293.558594 95.292969 271.617188 115.539062 C 227.738281 156.011719 247.703125 209.132812 290.171875 230.90625 C 313.789062 243.03125 325.523438 248.695312 330.996094 258.285156 C 332.023438 260.09375 332.824219 262.066406 333.457031 264.226562 L 333.625 264.226562 L 333.625 374.679688 C 333.625 374.546875 333.640625 374.417969 333.660156 374.269531 C 334.851562 362.386719 341.335938 352.792969 352.042969 346.984375 C 354.914062 345.417969 355.65625 343.460938 355.546875 340.425781 C 355.378906 335.304688 355.769531 330.144531 355.417969 325.042969 C 355.339844 323.960938 355.398438 323.085938 355.566406 322.359375 C 356.105469 320.125 357.855469 319.492188 360.910156 319.621094 C 367.785156 319.882812 374.695312 319.585938 381.546875 319.769531 C 384.808594 319.863281 386.632812 318.949219 388.03125 315.636719 C 388.214844 315.167969 388.421875 314.703125 388.625 314.257812 C 389.613281 312.058594 390.710938 310.027344 391.886719 308.109375 C 396.691406 300.214844 403.0625 294.589844 411.089844 291.644531 C 415.875 289.875 421.277344 289.039062 427.253906 289.207031 C 435.300781 289.410156 443.085938 288.535156 450.742188 286.933594 C 458.621094 285.277344 466.332031 282.835938 473.96875 279.984375 C 475.535156 279.390625 477.078125 278.792969 478.664062 278.179688 C 479.964844 277.65625 481.175781 277.15625 482.3125 276.671875 C 490.863281 272.945312 494.886719 269.742188 501.8125 262.273438 C 507.980469 269.574219 515.390625 274.324219 523.421875 277.804688 C 531.78125 281.4375 540.796875 283.730469 549.71875 286.078125 C 552.773438 286.878906 555.941406 287.527344 559.125 287.996094 C 563.929688 288.722656 568.8125 289.039062 573.597656 288.925781 C 587.53125 288.648438 598.480469 292.667969 606.621094 301.332031 C 610.382812 305.335938 613.53125 310.308594 616.101562 316.304688 C 616.792969 317.925781 619.492188 319.453125 621.335938 319.546875 C 628.207031 319.9375 635.101562 319.992188 641.972656 319.601562 C 647.019531 319.304688 648.398438 321.277344 648.0625 326.101562 C 647.710938 331.207031 647.820312 336.367188 648.101562 341.488281 C 648.195312 343.070312 649.125 345.34375 650.355469 346.015625 C 659.929688 351.230469 665.589844 358.734375 668.609375 367.65625 L 668.609375 264.226562 L 668.589844 264.226562 C 668.941406 260.464844 669.984375 257.710938 672.089844 255.417969 C 675.984375 251.191406 683.488281 248.472656 696.863281 243.648438 C 698.035156 243.21875 699.152344 242.734375 700.328125 242.304688 C 733.035156 230.105469 752.984375 207.570312 755.03125 171.957031 C 756.839844 140.238281 736.03125 103.804688 702.226562 96.632812 " clip-rule="nonzero"/></clipPath><clipPath id="ae1082c601"><path d="M 0.628906 0 L 509.628906 0 L 509.628906 364.90625 L 0.628906 364.90625 Z M 0.628906 0 " clip-rule="nonzero"/></clipPath><clipPath id="d0857ff3f2"><path d="M 442.070312 217.332031 C 439.816406 217.890625 437.378906 217.757812 434.863281 217.273438 C 434.601562 217.21875 434.34375 217.164062 434.027344 217.105469 C 433.207031 216.941406 432.367188 216.734375 431.546875 216.511719 C 421.734375 213.214844 423.667969 201.199219 424.097656 199.097656 C 425.195312 194.066406 426.667969 189.355469 429.59375 185.851562 C 434.527344 179.929688 441.570312 175.796875 448.664062 171.679688 C 451.085938 170.746094 454.179688 168.773438 457.289062 166.5 C 457.660156 166.277344 458.015625 166.035156 458.386719 165.792969 C 458.371094 165.757812 458.371094 165.738281 458.351562 165.71875 C 464.777344 160.894531 470.941406 155.195312 470.941406 155.195312 L 454.105469 161.695312 C 396.457031 182.070312 344.378906 167.691406 294.460938 139.960938 C 294.460938 139.511719 294.445312 139.066406 294.445312 138.636719 C 309.828125 128.914062 342.089844 125.542969 342.089844 125.542969 C 332.8125 120.273438 321.320312 117.664062 313.832031 116.453125 C 313.796875 116.453125 313.757812 116.433594 313.722656 116.433594 C 313.683594 116.433594 313.664062 116.433594 313.648438 116.417969 C 309.046875 115.671875 305.992188 115.464844 305.992188 115.464844 L 305.972656 115.484375 C 272.578125 112.1875 241.398438 120.8125 211.242188 135.710938 C 190.71875 145.808594 169.96875 155.679688 148.640625 163.96875 C 127.519531 172.199219 106.027344 172.441406 84.996094 163.835938 L 84.996094 163.019531 L 78.496094 160.96875 C 74.941406 159.480469 71.140625 158.511719 67.359375 157.46875 L 48.753906 151.636719 C 52.253906 154.542969 57.207031 159.089844 61.769531 163.335938 C 63.894531 165.363281 66.035156 167.375 68.179688 169.386719 C 71.195312 172.257812 73.261719 174.269531 73.355469 174.359375 C 75.964844 176.929688 78.480469 179.578125 80.808594 182.390625 C 85.519531 188.070312 90.472656 194.832031 91.757812 201.777344 C 93.492188 211.203125 87.585938 215.449219 77.902344 212.097656 C 75.554688 211.277344 73.28125 210.253906 71.066406 209.136719 C 49.402344 198.425781 27.425781 186.078125 25.878906 159.3125 C 24.371094 133.550781 43.835938 118.578125 63.449219 105.558594 C 67.5625 102.820312 71.960938 100.4375 76.394531 98.21875 C 99.394531 86.765625 104.21875 86.523438 106.640625 105.59375 C 106.640625 105.632812 104.742188 136.53125 129.121094 146.832031 C 129.121094 146.832031 128.527344 125.171875 131.152344 108.425781 C 136.050781 83.617188 147.226562 62.308594 169.203125 47.164062 C 198.390625 27.070312 231.9375 20.492188 266.5625 21.109375 C 316.253906 21.984375 359.671875 35.804688 383.808594 84.808594 C 390.328125 98.015625 403.011719 98.292969 415.996094 98.367188 C 443.898438 98.535156 469.246094 104.085938 482.0625 133.460938 C 497.222656 168.25 478.914062 207.980469 442.070312 217.332031 M 456.246094 86.652344 C 418.117188 78.570312 393.199219 57.613281 366.132812 32.433594 C 332.160156 0.84375 286.210938 -2.730469 241.304688 1.515625 C 195.820312 5.796875 153.671875 18.464844 123.871094 57.371094 C 119.679688 62.847656 110.199219 65.644531 102.691406 66.964844 C 73.039062 72.21875 47.558594 85.292969 25.617188 105.539062 C -18.261719 146.011719 1.703125 199.132812 44.171875 220.90625 C 67.789062 233.03125 79.523438 238.695312 84.996094 248.285156 C 86.023438 250.09375 86.824219 252.066406 87.457031 254.226562 L 87.625 254.226562 L 87.625 364.679688 C 87.625 364.546875 87.640625 364.417969 87.660156 364.269531 C 88.851562 352.386719 95.335938 342.792969 106.042969 336.984375 C 108.914062 335.417969 109.65625 333.460938 109.546875 330.425781 C 109.378906 325.304688 109.769531 320.144531 109.417969 315.042969 C 109.339844 313.960938 109.398438 313.085938 109.566406 312.359375 C 110.105469 310.125 111.855469 309.492188 114.910156 309.621094 C 121.785156 309.882812 128.695312 309.585938 135.546875 309.769531 C 138.808594 309.863281 140.632812 308.949219 142.03125 305.636719 C 142.214844 305.167969 142.421875 304.703125 142.625 304.257812 C 143.613281 302.058594 144.710938 300.027344 145.886719 298.109375 C 150.691406 290.214844 157.0625 284.589844 165.089844 281.644531 C 169.875 279.875 175.277344 279.039062 181.253906 279.207031 C 189.300781 279.410156 197.085938 278.535156 204.742188 276.933594 C 212.621094 275.277344 220.332031 272.835938 227.96875 269.984375 C 229.535156 269.390625 231.078125 268.792969 232.664062 268.179688 C 233.964844 267.65625 235.175781 267.15625 236.3125 266.671875 C 244.863281 262.945312 248.886719 259.742188 255.8125 252.273438 C 261.980469 259.574219 269.390625 264.324219 277.421875 267.804688 C 285.78125 271.4375 294.796875 273.730469 303.71875 276.078125 C 306.773438 276.878906 309.941406 277.527344 313.125 277.996094 C 317.929688 278.722656 322.8125 279.039062 327.597656 278.925781 C 341.53125 278.648438 352.480469 282.667969 360.621094 291.332031 C 364.382812 295.335938 367.53125 300.308594 370.101562 306.304688 C 370.792969 307.925781 373.492188 309.453125 375.335938 309.546875 C 382.207031 309.9375 389.101562 309.992188 395.972656 309.601562 C 401.019531 309.304688 402.398438 311.277344 402.0625 316.101562 C 401.710938 321.207031 401.820312 326.367188 402.101562 331.488281 C 402.195312 333.070312 403.125 335.34375 404.355469 336.015625 C 413.929688 341.230469 419.589844 348.734375 422.609375 357.65625 L 422.609375 254.226562 L 422.589844 254.226562 C 422.941406 250.464844 423.984375 247.710938 426.089844 245.417969 C 429.984375 241.191406 437.488281 238.472656 450.863281 233.648438 C 452.035156 233.21875 453.152344 232.734375 454.328125 232.304688 C 487.035156 220.105469 506.984375 197.570312 509.03125 161.957031 C 510.839844 130.238281 490.03125 93.804688 456.226562 86.632812 " clip-rule="nonzero"/></clipPath><clipPath id="d92e6874ad"><rect x="0" width="510" y="0" height="365"/></clipPath><clipPath id="5bdae40e7f"><path d="M 468.195312 307 L 492 307 L 492 330 L 468.195312 330 Z M 468.195312 307 " clip-rule="nonzero"/></clipPath><clipPath id="e1c3a3fd4a"><path d="M 491.308594 318.523438 C 491.308594 324.78125 486.242188 329.847656 479.984375 329.847656 C 473.726562 329.847656 468.660156 324.78125 468.660156 318.523438 C 468.660156 312.265625 473.726562 307.199219 479.984375 307.199219 C 486.242188 307.199219 491.308594 312.265625 491.308594 318.523438 " clip-rule="nonzero"/></clipPath><clipPath id="c802831329"><path d="M 0.5 0.109375 L 23.5 0.109375 L 23.5 22.867188 L 0.5 22.867188 Z M 0.5 0.109375 " clip-rule="nonzero"/></clipPath><clipPath id="d908142545"><path d="M 23.308594 11.523438 C 23.308594 17.78125 18.242188 22.847656 11.984375 22.847656 C 5.726562 22.847656 0.660156 17.78125 0.660156 11.523438 C 0.660156 5.265625 5.726562 0.199219 11.984375 0.199219 C 18.242188 0.199219 23.308594 5.265625 23.308594 11.523438 " clip-rule="nonzero"/></clipPath><clipPath id="6d1e677f10"><rect x="0" width="24" y="0" height="23"/></clipPath><clipPath id="112454c4d0"><path d="M 510.109375 307 L 534 307 L 534 330 L 510.109375 330 Z M 510.109375 307 " clip-rule="nonzero"/></clipPath><clipPath id="e121823337"><path d="M 533.460938 318.523438 C 533.460938 324.78125 528.394531 329.847656 522.136719 329.847656 C 515.875 329.847656 510.8125 324.78125 510.8125 318.523438 C 510.8125 312.265625 515.875 307.199219 522.136719 307.199219 C 528.394531 307.199219 533.460938 312.265625 533.460938 318.523438 " clip-rule="nonzero"/></clipPath><clipPath id="772ff2326f"><path d="M 0.664062 0.109375 L 23.660156 0.109375 L 23.660156 22.867188 L 0.664062 22.867188 Z M 0.664062 0.109375 " clip-rule="nonzero"/></clipPath><clipPath id="c6d87dab52"><path d="M 23.460938 11.523438 C 23.460938 17.78125 18.394531 22.847656 12.136719 22.847656 C 5.875 22.847656 0.8125 17.78125 0.8125 11.523438 C 0.8125 5.265625 5.875 0.199219 12.136719 0.199219 C 18.394531 0.199219 23.460938 5.265625 23.460938 11.523438 " clip-rule="nonzero"/></clipPath><clipPath id="08ab96e939"><rect x="0" width="24" y="0" height="23"/></clipPath><clipPath id="ea5fe9a1f0"><path d="M 532 347 L 555 347 L 555 370.523438 L 532 370.523438 Z M 532 347 " clip-rule="nonzero"/></clipPath><clipPath id="7601403f22"><path d="M 554.84375 359.109375 C 554.84375 365.367188 549.777344 370.433594 543.515625 370.433594 C 537.257812 370.433594 532.191406 365.367188 532.191406 359.109375 C 532.191406 352.851562 537.257812 347.785156 543.515625 347.785156 C 549.777344 347.785156 554.84375 352.851562 554.84375 359.109375 " clip-rule="nonzero"/></clipPath><clipPath id="59917d7d9b"><path d="M 0 0.597656 L 22.980469 0.597656 L 22.980469 23.523438 L 0 23.523438 Z M 0 0.597656 " clip-rule="nonzero"/></clipPath><clipPath id="997c8bb1ad"><path d="M 22.84375 12.109375 C 22.84375 18.367188 17.777344 23.433594 11.515625 23.433594 C 5.257812 23.433594 0.191406 18.367188 0.191406 12.109375 C 0.191406 5.851562 5.257812 0.785156 11.515625 0.785156 C 17.777344 0.785156 22.84375 5.851562 22.84375 12.109375 " clip-rule="nonzero"/></clipPath><clipPath id="366b7050f3"><rect x="0" width="23" y="0" height="24"/></clipPath><clipPath id="fcffba9da0"><path d="M 489.152344 347 L 513 347 L 513 370.523438 L 489.152344 370.523438 Z M 489.152344 347 " clip-rule="nonzero"/></clipPath><clipPath id="39170166d2"><path d="M 512.355469 359.109375 C 512.355469 365.367188 507.289062 370.433594 501.03125 370.433594 C 494.773438 370.433594 489.707031 365.367188 489.707031 359.109375 C 489.707031 352.851562 494.773438 347.785156 501.03125 347.785156 C 507.289062 347.785156 512.355469 352.851562 512.355469 359.109375 " clip-rule="nonzero"/></clipPath><clipPath id="dbb9a75de1"><path d="M 0.582031 0.597656 L 23.578125 0.597656 L 23.578125 23.523438 L 0.582031 23.523438 Z M 0.582031 0.597656 " clip-rule="nonzero"/></clipPath><clipPath id="a420d2a504"><path d="M 23.355469 12.109375 C 23.355469 18.367188 18.289062 23.433594 12.03125 23.433594 C 5.773438 23.433594 0.707031 18.367188 0.707031 12.109375 C 0.707031 5.851562 5.773438 0.785156 12.03125 0.785156 C 18.289062 0.785156 23.355469 5.851562 23.355469 12.109375 " clip-rule="nonzero"/></clipPath><clipPath id="1ff753beaf"><rect x="0" width="24" y="0" height="24"/></clipPath><clipPath id="11d9d59866"><path d="M 447.234375 347 L 470 347 L 470 370.523438 L 447.234375 370.523438 Z M 447.234375 347 " clip-rule="nonzero"/></clipPath><clipPath id="aaa6980a6e"><path d="M 469.910156 359.109375 C 469.910156 365.367188 464.84375 370.433594 458.585938 370.433594 C 452.324219 370.433594 447.257812 365.367188 447.257812 359.109375 C 447.257812 352.851562 452.324219 347.785156 458.585938 347.785156 C 464.84375 347.785156 469.910156 352.851562 469.910156 359.109375 " clip-rule="nonzero"/></clipPath><clipPath id="acef1ba523"><path d="M 0.234375 0.597656 L 22.9375 0.597656 L 22.9375 23.523438 L 0.234375 23.523438 Z M 0.234375 0.597656 " clip-rule="nonzero"/></clipPath><clipPath id="683dbc9187"><path d="M 22.910156 12.109375 C 22.910156 18.367188 17.84375 23.433594 11.585938 23.433594 C 5.324219 23.433594 0.257812 18.367188 0.257812 12.109375 C 0.257812 5.851562 5.324219 0.785156 11.585938 0.785156 C 17.84375 0.785156 22.910156 5.851562 22.910156 12.109375 " clip-rule="nonzero"/></clipPath><clipPath id="6ab68b9e60"><rect x="0" width="23" y="0" height="24"/></clipPath><clipPath id="cf25edfe4a"><path d="M 652.101562 495.574219 L 684.472656 495.574219 L 684.472656 532.496094 L 652.101562 532.496094 Z M 652.101562 495.574219 " clip-rule="nonzero"/></clipPath><clipPath id="53bde663ac"><path d="M 675 520.28125 L 668.292969 501.539062 L 661.582031 520.28125 Z M 676.386719 524.214844 L 660.195312 524.214844 L 657.210938 532.480469 L 652.101562 532.480469 L 665.519531 495.574219 L 671.105469 495.574219 L 684.46875 532.480469 L 679.355469 532.480469 Z M 676.386719 524.214844 " clip-rule="nonzero"/></clipPath><clipPath id="c01d871303"><path d="M 0.101562 0.574219 L 32.472656 0.574219 L 32.472656 37.496094 L 0.101562 37.496094 Z M 0.101562 0.574219 " clip-rule="nonzero"/></clipPath><clipPath id="760aaf9977"><path d="M 23 25.28125 L 16.292969 6.539062 L 9.582031 25.28125 Z M 24.386719 29.214844 L 8.195312 29.214844 L 5.210938 37.480469 L 0.101562 37.480469 L 13.519531 0.574219 L 19.105469 0.574219 L 32.46875 37.480469 L 27.355469 37.480469 Z M 24.386719 29.214844 " clip-rule="nonzero"/></clipPath><clipPath id="469d2cd8a4"><rect x="0" width="33" y="0" height="38"/></clipPath><clipPath id="6b54a91a5f"><path d="M 713.222656 495.363281 L 738.5625 495.363281 L 738.5625 532.484375 L 713.222656 532.484375 Z M 713.222656 495.363281 " clip-rule="nonzero"/></clipPath><clipPath id="2becc60f4b"><path d="M 718.066406 513.414062 L 725.195312 513.414062 C 727.828125 513.414062 729.789062 512.769531 731.105469 511.46875 C 732.421875 510.167969 733.082031 508.445312 733.082031 506.273438 C 733.082031 504.074219 732.4375 502.363281 731.132812 501.160156 C 729.832031 499.957031 727.855469 499.355469 725.195312 499.355469 L 718.066406 499.355469 Z M 732.757812 532.476562 L 723.921875 517.296875 L 718.066406 517.296875 L 718.066406 532.476562 L 713.222656 532.476562 L 713.222656 495.363281 L 725.195312 495.363281 C 727.996094 495.363281 730.363281 495.839844 732.296875 496.804688 C 734.230469 497.769531 735.671875 499.058594 736.636719 500.683594 C 737.605469 502.308594 738.082031 504.1875 738.082031 506.273438 C 738.082031 508.820312 737.339844 511.078125 735.867188 513.039062 C 734.398438 515 732.183594 516.285156 729.242188 516.917969 L 738.554688 532.460938 Z M 732.757812 532.476562 " clip-rule="nonzero"/></clipPath><clipPath id="1e2ca049b3"><path d="M 0.222656 0.363281 L 25.5625 0.363281 L 25.5625 37.484375 L 0.222656 37.484375 Z M 0.222656 0.363281 " clip-rule="nonzero"/></clipPath><clipPath id="081408318f"><path d="M 5.066406 18.414062 L 12.195312 18.414062 C 14.828125 18.414062 16.789062 17.769531 18.105469 16.46875 C 19.421875 15.167969 20.082031 13.445312 20.082031 11.273438 C 20.082031 9.074219 19.4375 7.363281 18.132812 6.160156 C 16.832031 4.957031 14.855469 4.355469 12.195312 4.355469 L 5.066406 4.355469 Z M 19.757812 37.476562 L 10.921875 22.296875 L 5.066406 22.296875 L 5.066406 37.476562 L 0.222656 37.476562 L 0.222656 0.363281 L 12.195312 0.363281 C 14.996094 0.363281 17.363281 0.839844 19.296875 1.804688 C 21.230469 2.769531 22.671875 4.058594 23.636719 5.683594 C 24.605469 7.308594 25.082031 9.1875 25.082031 11.273438 C 25.082031 13.820312 24.339844 16.078125 22.867188 18.039062 C 21.398438 20 19.183594 21.285156 16.242188 21.917969 L 25.554688 37.460938 Z M 19.757812 37.476562 " clip-rule="nonzero"/></clipPath><clipPath id="b04d7bcc5a"><rect x="0" width="26" y="0" height="38"/></clipPath><clipPath id="23e890db18"><path d="M 766.140625 495.574219 L 798.511719 495.574219 L 798.511719 532.496094 L 766.140625 532.496094 Z M 766.140625 495.574219 " clip-rule="nonzero"/></clipPath><clipPath id="1c8d2fcf93"><path d="M 789.039062 520.28125 L 782.332031 501.539062 L 775.625 520.28125 Z M 790.425781 524.214844 L 774.238281 524.214844 L 771.253906 532.480469 L 766.140625 532.480469 L 779.558594 495.574219 L 785.148438 495.574219 L 798.507812 532.480469 L 793.398438 532.480469 Z M 790.425781 524.214844 " clip-rule="nonzero"/></clipPath><clipPath id="e9a8803b97"><path d="M 0.140625 0.574219 L 32.511719 0.574219 L 32.511719 37.496094 L 0.140625 37.496094 Z M 0.140625 0.574219 " clip-rule="nonzero"/></clipPath><clipPath id="d97ca93c06"><path d="M 23.039062 25.28125 L 16.332031 6.539062 L 9.625 25.28125 Z M 24.425781 29.214844 L 8.238281 29.214844 L 5.253906 37.480469 L 0.140625 37.480469 L 13.558594 0.574219 L 19.148438 0.574219 L 32.507812 37.480469 L 27.398438 37.480469 Z M 24.425781 29.214844 " clip-rule="nonzero"/></clipPath><clipPath id="aa684e1005"><rect x="0" width="33" y="0" height="38"/></clipPath><clipPath id="468130b3d4"><path d="M 827.265625 495.363281 L 853.191406 495.363281 L 853.191406 532.53125 L 827.265625 532.53125 Z M 827.265625 495.363281 " clip-rule="nonzero"/></clipPath><clipPath id="02c880a717"><path d="M 846.324219 526.777344 C 847.671875 525.644531 848.355469 524.058594 848.355469 522.042969 C 848.355469 519.984375 847.640625 518.359375 846.226562 517.167969 C 844.8125 515.980469 842.910156 515.390625 840.527344 515.390625 L 832.109375 515.390625 L 832.109375 528.484375 L 840.679688 528.484375 C 843.089844 528.484375 844.980469 527.925781 846.324219 526.777344 M 832.109375 511.386719 L 840.261719 511.386719 C 842.53125 511.386719 844.292969 510.851562 845.527344 509.789062 C 846.761719 508.722656 847.390625 507.253906 847.390625 505.375 C 847.390625 503.5 846.773438 502.027344 845.527344 500.949219 C 844.28125 499.871094 842.488281 499.355469 840.148438 499.355469 L 832.109375 499.355469 Z M 849.546875 515 C 850.667969 515.878906 851.550781 516.988281 852.207031 518.304688 C 852.867188 519.621094 853.1875 521.019531 853.1875 522.503906 C 853.1875 524.382812 852.710938 526.078125 851.746094 527.589844 C 850.78125 529.101562 849.394531 530.292969 847.570312 531.160156 C 845.75 532.027344 843.582031 532.464844 841.101562 532.464844 L 827.265625 532.464844 L 827.265625 495.363281 L 840.570312 495.363281 C 843.089844 495.363281 845.234375 495.78125 847.011719 496.609375 C 848.789062 497.433594 850.121094 498.570312 851.003906 500 C 851.886719 501.425781 852.335938 503.007812 852.335938 504.789062 C 852.335938 506.988281 851.746094 508.808594 850.554688 510.25 C 849.363281 511.691406 847.796875 512.730469 845.847656 513.359375 C 847.195312 513.570312 848.425781 514.128906 849.546875 515.011719 " clip-rule="nonzero"/></clipPath><clipPath id="8b3ff93a58"><path d="M 0.265625 0.363281 L 26.191406 0.363281 L 26.191406 37.53125 L 0.265625 37.53125 Z M 0.265625 0.363281 " clip-rule="nonzero"/></clipPath><clipPath id="c55123fca3"><path d="M 19.324219 31.777344 C 20.671875 30.644531 21.355469 29.058594 21.355469 27.042969 C 21.355469 24.984375 20.640625 23.359375 19.226562 22.167969 C 17.8125 20.980469 15.910156 20.390625 13.527344 20.390625 L 5.109375 20.390625 L 5.109375 33.484375 L 13.679688 33.484375 C 16.089844 33.484375 17.980469 32.925781 19.324219 31.777344 M 5.109375 16.386719 L 13.261719 16.386719 C 15.53125 16.386719 17.292969 15.851562 18.527344 14.789062 C 19.761719 13.722656 20.390625 12.253906 20.390625 10.375 C 20.390625 8.5 19.773438 7.027344 18.527344 5.949219 C 17.28125 4.871094 15.488281 4.355469 13.148438 4.355469 L 5.109375 4.355469 Z M 22.546875 20 C 23.667969 20.878906 24.550781 21.988281 25.207031 23.304688 C 25.867188 24.621094 26.1875 26.019531 26.1875 27.503906 C 26.1875 29.382812 25.710938 31.078125 24.746094 32.589844 C 23.78125 34.101562 22.394531 35.292969 20.570312 36.160156 C 18.75 37.027344 16.582031 37.464844 14.101562 37.464844 L 0.265625 37.464844 L 0.265625 0.363281 L 13.570312 0.363281 C 16.089844 0.363281 18.234375 0.78125 20.011719 1.609375 C 21.789062 2.433594 23.121094 3.570312 24.003906 5 C 24.886719 6.425781 25.335938 8.007812 25.335938 9.789062 C 25.335938 11.988281 24.746094 13.808594 23.554688 15.25 C 22.363281 16.691406 20.796875 17.730469 18.847656 18.359375 C 20.195312 18.570312 21.425781 19.128906 22.546875 20.011719 " clip-rule="nonzero"/></clipPath><clipPath id="c222f69aae"><rect x="0" width="27" y="0" height="38"/></clipPath><clipPath id="cb47e6a915"><path d="M 882.792969 495.363281 L 887.640625 495.363281 L 887.640625 532.476562 L 882.792969 532.476562 Z M 882.792969 495.363281 " clip-rule="nonzero"/></clipPath><clipPath id="9b6493916c"><path d="M 0.792969 0.363281 L 5.640625 0.363281 L 5.640625 37.476562 L 0.792969 37.476562 Z M 0.792969 0.363281 " clip-rule="nonzero"/></clipPath><clipPath id="3cf67ebc4f"><rect x="0" width="6" y="0" height="38"/></clipPath><clipPath id="9aa0d79d66"><path d="M 578.222656 383.730469 L 667.453125 383.730469 L 667.453125 472.539062 L 578.222656 472.539062 Z M 578.222656 383.730469 " clip-rule="nonzero"/></clipPath><clipPath id="93edc38f61"><path d="M 659.355469 464.320312 C 657.042969 462.007812 655.097656 458.914062 653.5 455.003906 L 623.726562 383.996094 L 617.746094 383.996094 L 578.515625 471.757812 L 585.433594 471.757812 L 599.132812 441.574219 L 614.550781 406.867188 L 629.0625 441.308594 C 629.300781 441.699219 634.761719 455.003906 634.761719 455.003906 C 636.890625 460.0625 639.441406 463.828125 642.410156 466.308594 C 645.378906 468.789062 648.472656 470.410156 651.722656 471.152344 C 654.972656 471.898438 658.039062 472.289062 660.964844 472.289062 C 661.945312 472.289062 663.066406 472.21875 664.355469 472.09375 C 665.644531 471.964844 666.640625 471.796875 667.351562 471.628906 L 667.351562 468.296875 C 664.339844 467.945312 661.679688 466.617188 659.371094 464.304688 " clip-rule="nonzero"/></clipPath><clipPath id="e516c164f1"><path d="M 0.457031 0.769531 L 89.453125 0.769531 L 89.453125 89.40625 L 0.457031 89.40625 Z M 0.457031 0.769531 " clip-rule="nonzero"/></clipPath><clipPath id="f0f74e6f3b"><path d="M 81.355469 81.320312 C 79.042969 79.007812 77.097656 75.914062 75.5 72.003906 L 45.726562 0.996094 L 39.746094 0.996094 L 0.515625 88.757812 L 7.433594 88.757812 L 21.132812 58.574219 L 36.550781 23.867188 L 51.0625 58.308594 C 51.300781 58.699219 56.761719 72.003906 56.761719 72.003906 C 58.890625 77.0625 61.441406 80.828125 64.410156 83.308594 C 67.378906 85.789062 70.472656 87.410156 73.722656 88.152344 C 76.972656 88.898438 80.039062 89.289062 82.964844 89.289062 C 83.945312 89.289062 85.066406 89.21875 86.355469 89.09375 C 87.644531 88.964844 88.640625 88.796875 89.351562 88.628906 L 89.351562 85.296875 C 86.339844 84.945312 83.679688 83.617188 81.371094 81.304688 " clip-rule="nonzero"/></clipPath><clipPath id="f7f5b17256"><rect x="0" width="90" y="0" height="90"/></clipPath><clipPath id="4e85a28ffc"><path d="M 472 383.730469 L 574.855469 383.730469 L 574.855469 478 L 472 478 Z M 472 383.730469 " clip-rule="nonzero"/></clipPath><clipPath id="4723d0c3ac"><path d="M 574.789062 477.738281 C 568.402344 477.738281 563.222656 476.742188 559.230469 474.738281 C 555.238281 472.738281 552.339844 469.640625 550.519531 465.425781 C 548.699219 461.210938 547.785156 455.789062 547.785156 449.136719 L 547.785156 402.078125 L 518.683594 471.757812 L 514.285156 471.757812 L 478.65625 399.417969 L 478.65625 471.757812 L 472.003906 471.757812 L 472.003906 383.996094 L 488.222656 383.996094 L 520.40625 449.292969 L 547.660156 383.996094 L 565.082031 383.996094 L 565.082031 449.152344 C 565.082031 457.21875 565.769531 463.269531 567.144531 467.300781 C 568.515625 471.335938 571.0625 473.703125 574.789062 474.417969 Z M 574.789062 477.738281 " clip-rule="nonzero"/></clipPath><clipPath id="dc2901d43a"><path d="M 0 0.769531 L 102.855469 0.769531 L 102.855469 94.914062 L 0 94.914062 Z M 0 0.769531 " clip-rule="nonzero"/></clipPath><clipPath id="9eb66a57c4"><path d="M 102.789062 94.738281 C 96.402344 94.738281 91.222656 93.742188 87.230469 91.738281 C 83.238281 89.738281 80.339844 86.640625 78.519531 82.425781 C 76.699219 78.210938 75.785156 72.789062 75.785156 66.136719 L 75.785156 19.078125 L 46.683594 88.757812 L 42.285156 88.757812 L 6.65625 16.417969 L 6.65625 88.757812 L 0.00390625 88.757812 L 0.00390625 0.996094 L 16.222656 0.996094 L 48.40625 66.292969 L 75.660156 0.996094 L 93.082031 0.996094 L 93.082031 66.152344 C 93.082031 74.21875 93.769531 80.269531 95.144531 84.300781 C 96.515625 88.335938 99.0625 90.703125 102.789062 91.417969 Z M 102.789062 94.738281 " clip-rule="nonzero"/></clipPath><clipPath id="8b9093f979"><rect x="0" width="103" y="0" height="95"/></clipPath><clipPath id="582e28b7f2"><path d="M 663.664062 383.730469 L 745.742188 383.730469 L 745.742188 472.539062 L 663.664062 472.539062 Z M 663.664062 383.730469 " clip-rule="nonzero"/></clipPath><clipPath id="8e19b42cf2"><path d="M 739.539062 472.164062 L 683.164062 405.945312 L 683.164062 471.769531 L 676.511719 471.769531 L 676.511719 399.949219 C 676.511719 396.589844 675.6875 393.746094 674.046875 391.433594 C 672.410156 389.125 669.242188 387.976562 664.539062 387.976562 L 663.878906 387.976562 L 663.878906 383.996094 L 673.191406 383.996094 C 678.25 383.996094 682.339844 384.65625 685.492188 385.984375 C 688.640625 387.316406 691.234375 389.304688 693.261719 391.964844 L 739.003906 445.160156 L 739.003906 383.996094 L 745.660156 383.996094 L 745.660156 472.164062 Z M 739.539062 472.164062 " clip-rule="nonzero"/></clipPath><clipPath id="7199bffa1f"><path d="M 0.738281 0.769531 L 82.667969 0.769531 L 82.667969 89.164062 L 0.738281 89.164062 Z M 0.738281 0.769531 " clip-rule="nonzero"/></clipPath><clipPath id="2ee1842ba5"><path d="M 76.539062 89.164062 L 20.164062 22.945312 L 20.164062 88.769531 L 13.511719 88.769531 L 13.511719 16.949219 C 13.511719 13.589844 12.6875 10.746094 11.046875 8.433594 C 9.410156 6.125 6.242188 4.976562 1.539062 4.976562 L 0.878906 4.976562 L 0.878906 0.996094 L 10.191406 0.996094 C 15.25 0.996094 19.339844 1.65625 22.492188 2.984375 C 25.640625 4.316406 28.234375 6.304688 30.261719 8.964844 L 76.003906 62.160156 L 76.003906 0.996094 L 82.660156 0.996094 L 82.660156 89.164062 Z M 76.539062 89.164062 " clip-rule="nonzero"/></clipPath><clipPath id="91eab8507b"><rect x="0" width="83" y="0" height="90"/></clipPath><clipPath id="8b0d119ccb"><path d="M 759.210938 383.730469 L 832.867188 383.730469 L 832.867188 472 L 759.210938 472 Z M 759.210938 383.730469 " clip-rule="nonzero"/></clipPath><clipPath id="c60d28d147"><path d="M 759.609375 471.757812 L 759.609375 467.5 L 809.074219 389.851562 L 780.222656 389.851562 C 775.519531 389.851562 771.808594 391.042969 769.046875 393.4375 C 766.289062 395.832031 764.929688 400.003906 764.929688 405.929688 L 760.9375 405.929688 L 760.9375 394.640625 C 760.9375 392.863281 761.246094 391.167969 761.863281 389.515625 C 762.480469 387.863281 763.613281 386.546875 765.253906 385.523438 C 766.890625 384.5 769.230469 383.996094 772.253906 383.996094 L 832.757812 383.996094 L 780.628906 465.777344 L 832.085938 465.777344 L 832.085938 471.757812 Z M 759.609375 471.757812 " clip-rule="nonzero"/></clipPath><clipPath id="73f22c218b"><path d="M 0.5625 0.769531 L 73.867188 0.769531 L 73.867188 88.925781 L 0.5625 88.925781 Z M 0.5625 0.769531 " clip-rule="nonzero"/></clipPath><clipPath id="67e2e8c173"><path d="M 0.609375 88.757812 L 0.609375 84.5 L 50.074219 6.851562 L 21.222656 6.851562 C 16.519531 6.851562 12.808594 8.042969 10.046875 10.4375 C 7.289062 12.832031 5.929688 17.003906 5.929688 22.929688 L 1.9375 22.929688 L 1.9375 11.640625 C 1.9375 9.863281 2.246094 8.167969 2.863281 6.515625 C 3.480469 4.863281 4.613281 3.546875 6.253906 2.523438 C 7.890625 1.5 10.230469 0.996094 13.253906 0.996094 L 73.757812 0.996094 L 21.628906 82.777344 L 73.085938 82.777344 L 73.085938 88.757812 Z M 0.609375 88.757812 " clip-rule="nonzero"/></clipPath><clipPath id="8c339edc42"><rect x="0" width="74" y="0" height="89"/></clipPath><clipPath id="0a641b9bbb"><path d="M 845.496094 383.730469 L 873.695312 383.730469 L 873.695312 472 L 845.496094 472 Z M 845.496094 383.730469 " clip-rule="nonzero"/></clipPath><clipPath id="566eab4cc2"><path d="M 857.621094 471.757812 C 854.511719 471.757812 852.101562 471.253906 850.378906 470.230469 C 848.65625 469.207031 847.4375 467.441406 846.722656 464.90625 C 846.007812 462.371094 845.660156 458.898438 845.660156 454.472656 L 845.660156 383.996094 L 862.941406 383.996094 L 862.941406 454.472656 C 862.941406 458.464844 863.488281 461.671875 864.609375 464.109375 C 865.730469 466.546875 868.261719 467.765625 872.253906 467.765625 L 873.585938 467.765625 L 873.585938 471.757812 Z M 857.621094 471.757812 " clip-rule="nonzero"/></clipPath><clipPath id="25235680d3"><path d="M 0.5625 0.769531 L 28.589844 0.769531 L 28.589844 88.925781 L 0.5625 88.925781 Z M 0.5625 0.769531 " clip-rule="nonzero"/></clipPath><clipPath id="d6a8585acb"><path d="M 12.621094 88.757812 C 9.511719 88.757812 7.101562 88.253906 5.378906 87.230469 C 3.65625 86.207031 2.4375 84.441406 1.722656 81.90625 C 1.007812 79.371094 0.660156 75.898438 0.660156 71.472656 L 0.660156 0.996094 L 17.941406 0.996094 L 17.941406 71.472656 C 17.941406 75.464844 18.488281 78.671875 19.609375 81.109375 C 20.730469 83.546875 23.261719 84.765625 27.253906 84.765625 L 28.585938 84.765625 L 28.585938 88.757812 Z M 12.621094 88.757812 " clip-rule="nonzero"/></clipPath><clipPath id="4779393a51"><rect x="0" width="29" y="0" height="89"/></clipPath><clipPath id="73b4e9d2e7"><path d="M 877.484375 383.730469 L 951.5625 383.730469 L 951.5625 472 L 877.484375 472 Z M 877.484375 383.730469 " clip-rule="nonzero"/></clipPath><clipPath id="a6dfcba2c0"><path d="M 888.195312 471.757812 L 888.195312 401.28125 C 888.195312 397.289062 887.632812 394.082031 886.527344 391.644531 C 885.421875 389.207031 882.871094 387.988281 878.878906 387.988281 L 877.550781 387.988281 L 877.550781 383.996094 L 893.5 383.996094 C 896.609375 383.996094 899.019531 384.53125 900.742188 385.59375 C 902.464844 386.660156 903.683594 388.4375 904.398438 390.917969 C 905.113281 393.394531 905.460938 396.855469 905.460938 401.292969 L 905.460938 465.777344 L 951.34375 465.777344 L 951.34375 471.757812 Z M 888.195312 471.757812 " clip-rule="nonzero"/></clipPath><clipPath id="8ddfea95af"><path d="M 0.484375 0.769531 L 74.445312 0.769531 L 74.445312 88.925781 L 0.484375 88.925781 Z M 0.484375 0.769531 " clip-rule="nonzero"/></clipPath><clipPath id="9c4834a873"><path d="M 11.195312 88.757812 L 11.195312 18.28125 C 11.195312 14.289062 10.632812 11.082031 9.527344 8.644531 C 8.421875 6.207031 5.871094 4.988281 1.878906 4.988281 L 0.550781 4.988281 L 0.550781 0.996094 L 16.5 0.996094 C 19.609375 0.996094 22.019531 1.53125 23.742188 2.59375 C 25.464844 3.660156 26.683594 5.4375 27.398438 7.917969 C 28.113281 10.394531 28.460938 13.855469 28.460938 18.292969 L 28.460938 82.777344 L 74.34375 82.777344 L 74.34375 88.757812 Z M 11.195312 88.757812 " clip-rule="nonzero"/></clipPath><clipPath id="b80209b02a"><rect x="0" width="75" y="0" height="89"/></clipPath><clipPath id="7419b493d5"><path d="M 916.441406 495.574219 L 948.8125 495.574219 L 948.8125 532.496094 L 916.441406 532.496094 Z M 916.441406 495.574219 " clip-rule="nonzero"/></clipPath><clipPath id="826077f518"><path d="M 939.339844 520.28125 L 932.632812 501.539062 L 925.921875 520.28125 Z M 940.726562 524.214844 L 924.535156 524.214844 L 921.554688 532.480469 L 916.441406 532.480469 L 929.859375 495.574219 L 935.445312 495.574219 L 948.808594 532.480469 L 943.695312 532.480469 Z M 940.726562 524.214844 " clip-rule="nonzero"/></clipPath><clipPath id="ea0def7fba"><path d="M 0.441406 0.574219 L 32.8125 0.574219 L 32.8125 37.496094 L 0.441406 37.496094 Z M 0.441406 0.574219 " clip-rule="nonzero"/></clipPath><clipPath id="0827f72aa7"><path d="M 23.339844 25.28125 L 16.632812 6.539062 L 9.921875 25.28125 Z M 24.726562 29.214844 L 8.535156 29.214844 L 5.554688 37.480469 L 0.441406 37.480469 L 13.859375 0.574219 L 19.445312 0.574219 L 32.808594 37.480469 L 27.695312 37.480469 Z M 24.726562 29.214844 " clip-rule="nonzero"/></clipPath><clipPath id="0bf4370960"><rect x="0" width="33" y="0" height="38"/></clipPath><clipPath id="816d694821"><rect x="0" width="959" y="0" height="534"/></clipPath></defs><g clip-path="url(#98310eb486)"><g transform="matrix(1, 0, 0, 1, 0.000000000000000222, 0.000000000000017875)"><g clip-path="url(#816d694821)"><g clip-path="url(#74b0444adf)"><g transform="matrix(1, 0, 0, 1, 0.000000000000000222, 495)"><g clip-path="url(#70ece6f295)"><g clip-path="url(#4e5408ae32)"><path fill="#d29e00" d="M 0.164062 0.363281 L 25.296875 0.363281 L 25.296875 37.46875 L 0.164062 37.46875 Z M 0.164062 0.363281 " fill-opacity="1" fill-rule="nonzero"/></g></g></g></g><g clip-path="url(#ec945dcc59)"><g transform="matrix(1, 0, 0, 1, 54, 495)"><g clip-path="url(#e5910d29e7)"><g clip-path="url(#945cce5054)"><path fill="#d29e00" d="M 0.148438 0.363281 L 28.742188 0.363281 L 28.742188 37.441406 L 0.148438 37.441406 Z M 0.148438 0.363281 " fill-opacity="1" fill-rule="nonzero"/></g></g></g></g><g clip-path="url(#cd16ac99d4)"><g transform="matrix(1, 0, 0, 1, 113, 495)"><g clip-path="url(#51b4ac4804)"><g clip-path="url(#94d2a17094)"><path fill="#d29e00" d="M 0.886719 0.308594 L 20.851562 0.308594 L 20.851562 37.507812 L 0.886719 37.507812 Z M 0.886719 0.308594 " fill-opacity="1" fill-rule="nonzero"/></g></g></g></g><g clip-path="url(#09368d2cb9)"><g transform="matrix(1, 0, 0, 1, 201, 495)"><g clip-path="url(#1fcf82eb5e)"><g clip-path="url(#7f7314a2a9)"><path fill="#d29e00" d="M 0.203125 0.363281 L 21.179688 0.363281 L 21.179688 37.484375 L 0.203125 37.484375 Z M 0.203125 0.363281 " fill-opacity="1" fill-rule="nonzero"/></g></g></g></g><g clip-path="url(#e500571ab1)"><g transform="matrix(1, 0, 0, 1, 250, 495)"><g clip-path="url(#e2254b57e6)"><g clip-path="url(#bfc0c5713e)"><path fill="#d29e00" d="M 0.929688 0.308594 L 20.894531 0.308594 L 20.894531 37.507812 L 0.929688 37.507812 Z M 0.929688 0.308594 " fill-opacity="1" fill-rule="nonzero"/></g></g></g></g><g clip-path="url(#264fc8b509)"><g clip-path="url(#afc2d8edbf)"><g transform="matrix(1, 0, 0, 1, 298, 495)"><g clip-path="url(#281c70ae0c)"><g clip-path="url(#5984cd5c5a)"><g clip-path="url(#88297867fb)"><path fill="#d29e00" d="M 0.792969 0.574219 L 33.164062 0.574219 L 33.164062 37.496094 L 0.792969 37.496094 Z M 0.792969 0.574219 " fill-opacity="1" fill-rule="nonzero"/></g></g></g></g></g></g><g clip-path="url(#9adc7d0891)"><g clip-path="url(#119336095f)"><g transform="matrix(1, 0, 0, 1, 7, 383)"><g clip-path="url(#4524d896d1)"><g clip-path="url(#d793d4039f)"><g clip-path="url(#91dd95a34b)"><rect x="-356.44" width="1658.88" fill="#d29e00" y="-579.56" height="933.120002" fill-opacity="1"/></g></g></g></g></g></g><g clip-path="url(#117a1d817c)"><g clip-path="url(#4b26b504a2)"><g transform="matrix(1, 0, 0, 1, 113, 383)"><g clip-path="url(#4c03b2e37d)"><g clip-path="url(#2ea1d8d524)"><g clip-path="url(#457b8dc749)"><rect x="-462.44" width="1658.88" fill="#d29e00" y="-579.56" height="933.120002" fill-opacity="1"/></g></g></g></g></g></g><g clip-path="url(#2e04c53777)"><g clip-path="url(#e2d7a850f1)"><g transform="matrix(1, 0, 0, 1, 199, 383)"><g clip-path="url(#eaafc07834)"><g clip-path="url(#a8bdc93cdd)"><g clip-path="url(#363a9a2fdb)"><rect x="-548.44" width="1658.88" fill="#d29e00" y="-579.56" height="933.120002" fill-opacity="1"/></g></g></g></g></g></g><g clip-path="url(#6379bf628d)"><g clip-path="url(#0a7ae78d5d)"><g transform="matrix(1, 0, 0, 1, 292, 383)"><g clip-path="url(#dc6e0d4716)"><g clip-path="url(#e2bf062a10)"><g clip-path="url(#6244274587)"><rect x="-641.44" width="1658.88" fill="#d29e00" y="-579.56" height="933.120002" fill-opacity="1"/></g></g></g></g></g></g><g clip-path="url(#78eaf3c6b9)"><g clip-path="url(#f337327b7e)"><g transform="matrix(1, 0, 0, 1, 358, 494)"><g clip-path="url(#dc3ac2d854)"><g clip-path="url(#07550f1886)"><g clip-path="url(#bba1c069c7)"><path fill="#d29e00" d="M 0.847656 0.882812 L 26.03125 0.882812 L 26.03125 38.855469 L 0.847656 38.855469 Z M 0.847656 0.882812 " fill-opacity="1" fill-rule="nonzero"/></g></g></g></g></g></g><g clip-path="url(#62562f1ece)"><g clip-path="url(#3d5af62672)"><g transform="matrix(1, 0, 0, 1, 399, 383)"><g clip-path="url(#71e36a2498)"><g clip-path="url(#570b359c77)"><g clip-path="url(#206aacca4c)"><path fill="#d29e00" d="M 0.00390625 0.996094 L 27.925781 0.996094 L 27.925781 88.800781 L 0.00390625 88.800781 Z M 0.00390625 0.996094 " fill-opacity="1" fill-rule="nonzero"/></g></g></g></g></g></g><g clip-path="url(#f1c26e5270)"><g transform="matrix(1, 0, 0, 1, 411, 495)"><g clip-path="url(#b0e2e524d4)"><g clip-path="url(#83dd1fc367)"><path fill="#d29e00" d="M 0.769531 0.363281 L 25.898438 0.363281 L 25.898438 37.46875 L 0.769531 37.46875 Z M 0.769531 0.363281 " fill-opacity="1" fill-rule="nonzero"/></g></g></g></g><g clip-path="url(#9db69c4b3a)"><g clip-path="url(#563c27f7a3)"><g transform="matrix(1, 0, 0, 1, 501, 494)"><g clip-path="url(#af4eb942b2)"><g clip-path="url(#8ca5fb63b4)"><g clip-path="url(#76e17b9104)"><path fill="#d29e00" d="M 0.0546875 0.9375 L 37.324219 0.9375 L 37.324219 38.789062 L 0.0546875 38.789062 Z M 0.0546875 0.9375 " fill-opacity="1" fill-rule="nonzero"/></g></g></g></g></g></g><g clip-path="url(#fd22e89d1a)"><g transform="matrix(1, 0, 0, 1, 567, 495)"><g clip-path="url(#4926f9f44a)"><g clip-path="url(#5cd114cecd)"><path fill="#d29e00" d="M 0.605469 0.363281 L 21.582031 0.363281 L 21.582031 37.480469 L 0.605469 37.480469 Z M 0.605469 0.363281 " fill-opacity="1" fill-rule="nonzero"/></g></g></g></g><g clip-path="url(#54dec1c62b)"><g clip-path="url(#d14d54d4d2)"><g transform="matrix(1, 0, 0, 1, 246, 10)"><g clip-path="url(#d92e6874ad)"><g clip-path="url(#ae1082c601)"><g clip-path="url(#d0857ff3f2)"><rect x="-595.44" width="1658.88" fill="#d29e00" y="-206.56" height="933.120002" fill-opacity="1"/></g></g></g></g></g></g><g clip-path="url(#5bdae40e7f)"><g clip-path="url(#e1c3a3fd4a)"><g transform="matrix(1, 0, 0, 1, 468, 307)"><g clip-path="url(#6d1e677f10)"><g clip-path="url(#c802831329)"><g clip-path="url(#d908142545)"><rect x="-817.44" width="1658.88" fill="#d29e00" y="-503.56" height="933.120002" fill-opacity="1"/></g></g></g></g></g></g><g clip-path="url(#112454c4d0)"><g clip-path="url(#e121823337)"><g transform="matrix(1, 0, 0, 1, 510, 307)"><g clip-path="url(#08ab96e939)"><g clip-path="url(#772ff2326f)"><g clip-path="url(#c6d87dab52)"><rect x="-859.44" width="1658.88" fill="#d29e00" y="-503.56" height="933.120002" fill-opacity="1"/></g></g></g></g></g></g><g clip-path="url(#ea5fe9a1f0)"><g clip-path="url(#7601403f22)"><g transform="matrix(1, 0, 0, 1, 532, 347)"><g clip-path="url(#366b7050f3)"><g clip-path="url(#59917d7d9b)"><g clip-path="url(#997c8bb1ad)"><rect x="-881.44" width="1658.88" fill="#d29e00" y="-543.56" height="933.120002" fill-opacity="1"/></g></g></g></g></g></g><g clip-path="url(#fcffba9da0)"><g clip-path="url(#39170166d2)"><g transform="matrix(1, 0, 0, 1, 489, 347)"><g clip-path="url(#1ff753beaf)"><g clip-path="url(#dbb9a75de1)"><g clip-path="url(#a420d2a504)"><rect x="-838.44" width="1658.88" fill="#d29e00" y="-543.56" height="933.120002" fill-opacity="1"/></g></g></g></g></g></g><g clip-path="url(#11d9d59866)"><g clip-path="url(#aaa6980a6e)"><g transform="matrix(1, 0, 0, 1, 447, 347)"><g clip-path="url(#6ab68b9e60)"><g clip-path="url(#acef1ba523)"><g clip-path="url(#683dbc9187)"><rect x="-796.44" width="1658.88" fill="#d29e00" y="-543.56" height="933.120002" fill-opacity="1"/></g></g></g></g></g></g><g clip-path="url(#cf25edfe4a)"><g clip-path="url(#53bde663ac)"><g transform="matrix(1, 0, 0, 1, 652, 495)"><g clip-path="url(#469d2cd8a4)"><g clip-path="url(#c01d871303)"><g clip-path="url(#760aaf9977)"><path fill="#d29e00" d="M 0.101562 0.574219 L 32.472656 0.574219 L 32.472656 37.496094 L 0.101562 37.496094 Z M 0.101562 0.574219 " fill-opacity="1" fill-rule="nonzero"/></g></g></g></g></g></g><g clip-path="url(#6b54a91a5f)"><g clip-path="url(#2becc60f4b)"><g transform="matrix(1, 0, 0, 1, 713, 495)"><g clip-path="url(#b04d7bcc5a)"><g clip-path="url(#1e2ca049b3)"><g clip-path="url(#081408318f)"><path fill="#d29e00" d="M 0.222656 0.363281 L 25.5625 0.363281 L 25.5625 37.484375 L 0.222656 37.484375 Z M 0.222656 0.363281 " fill-opacity="1" fill-rule="nonzero"/></g></g></g></g></g></g><g clip-path="url(#23e890db18)"><g clip-path="url(#1c8d2fcf93)"><g transform="matrix(1, 0, 0, 1, 766, 495)"><g clip-path="url(#aa684e1005)"><g clip-path="url(#e9a8803b97)"><g clip-path="url(#d97ca93c06)"><path fill="#d29e00" d="M 0.140625 0.574219 L 32.511719 0.574219 L 32.511719 37.496094 L 0.140625 37.496094 Z M 0.140625 0.574219 " fill-opacity="1" fill-rule="nonzero"/></g></g></g></g></g></g><g clip-path="url(#468130b3d4)"><g clip-path="url(#02c880a717)"><g transform="matrix(1, 0, 0, 1, 827, 495)"><g clip-path="url(#c222f69aae)"><g clip-path="url(#8b3ff93a58)"><g clip-path="url(#c55123fca3)"><path fill="#d29e00" d="M 0.265625 0.363281 L 26.191406 0.363281 L 26.191406 37.429688 L 0.265625 37.429688 Z M 0.265625 0.363281 " fill-opacity="1" fill-rule="nonzero"/></g></g></g></g></g></g><g clip-path="url(#cb47e6a915)"><g transform="matrix(1, 0, 0, 1, 882, 495)"><g clip-path="url(#3cf67ebc4f)"><g clip-path="url(#9b6493916c)"><path fill="#d29e00" d="M 0.792969 0.363281 L 5.640625 0.363281 L 5.640625 37.472656 L 0.792969 37.472656 Z M 0.792969 0.363281 " fill-opacity="1" fill-rule="nonzero"/></g></g></g></g><g clip-path="url(#9aa0d79d66)"><g clip-path="url(#93edc38f61)"><g transform="matrix(1, 0, 0, 1, 578, 383)"><g clip-path="url(#f7f5b17256)"><g clip-path="url(#e516c164f1)"><g clip-path="url(#f0f74e6f3b)"><rect x="-927.44" width="1658.88" fill="#d29e00" y="-579.56" height="933.120002" fill-opacity="1"/></g></g></g></g></g></g><g clip-path="url(#4e85a28ffc)"><g clip-path="url(#4723d0c3ac)"><g transform="matrix(1, 0, 0, 1, 472, 383)"><g clip-path="url(#8b9093f979)"><g clip-path="url(#dc2901d43a)"><g clip-path="url(#9eb66a57c4)"><rect x="-821.44" width="1658.88" fill="#d29e00" y="-579.56" height="933.120002" fill-opacity="1"/></g></g></g></g></g></g><g clip-path="url(#582e28b7f2)"><g clip-path="url(#8e19b42cf2)"><g transform="matrix(1, 0, 0, 1, 663, 383)"><g clip-path="url(#91eab8507b)"><g clip-path="url(#7199bffa1f)"><g clip-path="url(#2ee1842ba5)"><rect x="-1012.44" width="1658.88" fill="#d29e00" y="-579.56" height="933.120002" fill-opacity="1"/></g></g></g></g></g></g><g clip-path="url(#8b0d119ccb)"><g clip-path="url(#c60d28d147)"><g transform="matrix(1, 0, 0, 1, 759, 383)"><g clip-path="url(#8c339edc42)"><g clip-path="url(#73f22c218b)"><g clip-path="url(#67e2e8c173)"><rect x="-1108.44" width="1658.88" fill="#d29e00" y="-579.56" height="933.120002" fill-opacity="1"/></g></g></g></g></g></g><g clip-path="url(#0a641b9bbb)"><g clip-path="url(#566eab4cc2)"><g transform="matrix(1, 0, 0, 1, 845, 383)"><g clip-path="url(#4779393a51)"><g clip-path="url(#25235680d3)"><g clip-path="url(#d6a8585acb)"><rect x="-1194.44" width="1658.88" fill="#d29e00" y="-579.56" height="933.120002" fill-opacity="1"/></g></g></g></g></g></g><g clip-path="url(#73b4e9d2e7)"><g clip-path="url(#a6dfcba2c0)"><g transform="matrix(1, 0, 0, 1, 877, 383)"><g clip-path="url(#b80209b02a)"><g clip-path="url(#8ddfea95af)"><g clip-path="url(#9c4834a873)"><rect x="-1226.44" width="1658.88" fill="#d29e00" y="-579.56" height="933.120002" fill-opacity="1"/></g></g></g></g></g></g><g clip-path="url(#7419b493d5)"><g clip-path="url(#826077f518)"><g transform="matrix(1, 0, 0, 1, 916, 495)"><g clip-path="url(#0bf4370960)"><g clip-path="url(#ea0def7fba)"><g clip-path="url(#0827f72aa7)"><path fill="#d29e00" d="M 0.441406 0.574219 L 32.8125 0.574219 L 32.8125 37.496094 L 0.441406 37.496094 Z M 0.441406 0.574219 " fill-opacity="1" fill-rule="nonzero"/></g></g></g></g></g></g></g></g></g></svg>